<svg xmlns="http://www.w3.org/2000/svg" viewBox="0 0 48 42"><defs><style>.cls-1{fill-rule:evenodd;}</style></defs><title>cafes</title><g id="图层_2" data-name="图层 2"><g id="应用"><g id="cafes"><path d="M47,20H45A21,21,0,0,0,3,20H1a1,1,0,0,0,0,2H3a21,21,0,0,0,7.35,15,.77.77,0,0,0,.73.14.75.75,0,0,0,.49-.57.74.74,0,0,0-.24-.7A19.5,19.5,0,1,1,24,40.52a18.91,18.91,0,0,1-5.69-.85.75.75,0,0,0-.94.88.77.77,0,0,0,.51.55A21,21,0,0,0,45,22h2a1,1,0,0,0,0-2Z"/><path class="cls-1" d="M30.77,21H28.52v3.33h2.25C33.4,24.33,33.4,21,30.77,21Z"/><path class="cls-1" d="M24,3A18,18,0,1,0,42,21,18,18,0,0,0,24,3Zm1.14,9.11a1.13,1.13,0,0,1,2.25,0v3.33a1.13,1.13,0,0,1-2.25,0Zm-4.51,0a1.13,1.13,0,0,1,2.26,0v3.33a1.13,1.13,0,0,1-2.26,0Zm-4.5,0a1.13,1.13,0,0,1,2.25,0v3.33a1.13,1.13,0,0,1-2.25,0ZM30.77,26.56H28.13A6.76,6.76,0,0,1,21,31,6.85,6.85,0,0,1,15,24.1V21a2.23,2.23,0,0,1,2.25-2.22H30.77A3.9,3.9,0,1,1,30.77,26.56Z"/></g></g></g></svg>