<svg xmlns="http://www.w3.org/2000/svg" viewBox="0 0 29.1 24.68"><title>complaints_advices</title><g id="图层_2" data-name="图层 2"><g id="应用"><g id="complaints_advices"><path d="M13.66,19.85a2.42,2.42,0,1,0,0,4.83h1.79a2.42,2.42,0,1,0,0-4.83Zm0,2h1.79a.42.42,0,1,1,0,.83H13.66a.42.42,0,1,1,0-.83Z"/><path d="M26.72,9.79a.49.49,0,0,1,.39.48v3.49a.39.39,0,0,1-.32.42H24.36a1,1,0,0,0,0,2h2.42a2.37,2.37,0,0,0,2.32-2.42V10.21A2.45,2.45,0,0,0,26.84,7.8a1,1,0,0,0-1.06.94A1,1,0,0,0,26.72,9.79Z"/><path d="M2.32,7.8A2.36,2.36,0,0,0,0,10.21v3.55a2.37,2.37,0,0,0,2.32,2.42H4.69a1,1,0,0,0,1-1.17l-.06-.39-1,.17h1v-.15a1.79,1.79,0,0,0,0-.23C4.36,9.05,7.39,3.63,12.33,2.3s9.93,1.88,11.2,7.22-1.74,10.79-6.68,12.15a1,1,0,1,0,.53,1.93c6-1.66,9.6-8.16,8.09-14.54S17.85-1.26,11.81.37,2.17,8.47,3.65,14.86l1-.22h-1v.15l0,.17.06.39,1-.17v-1H2.32A.39.39,0,0,1,2,13.76V10.21a.38.38,0,0,1,.32-.41,1,1,0,0,0,0-2Z"/><rect x="7.37" y="10.45" width="3.5" height="3.5" rx="1.5" ry="1.5"/><rect x="17.93" y="10.45" width="3.5" height="3.5" rx="1.5" ry="1.5"/><rect x="12" y="9.87" width="4.67" height="4.67" rx="2" ry="2"/></g></g></g></svg>