<svg xmlns="http://www.w3.org/2000/svg" viewBox="0 0 25.55 25.19"><title>decoration_application</title><g id="图层_2" data-name="图层 2"><g id="应用"><g id="decoration_application"><path d="M2,7.26a.41.41,0,0,1,.41-.41h8.93a1,1,0,0,0,0-2H2.41A2.41,2.41,0,0,0,0,7.26a1,1,0,0,0,2,0Z"/><path d="M18.34,17.14v5.64a.41.41,0,0,1-.41.41H2.41A.41.41,0,0,1,2,22.78V10.08a1,1,0,0,0-2,0v12.7a2.41,2.41,0,0,0,2.41,2.41H17.93a2.4,2.4,0,0,0,2.41-2.41V17.14a1,1,0,0,0-2,0Z"/><path d="M4.53,20.66H15.82a1,1,0,1,0,0-2H4.53a1,1,0,0,0,0,2Z"/><path d="M4.53,17.55h5.64a1,1,0,0,0,0-2H4.53a1,1,0,0,0,0,2Z"/><path d="M17.93,13.41a5.79,5.79,0,1,1,5.79-5.79A5.79,5.79,0,0,1,17.93,13.41Zm0,1.83a7.62,7.62,0,1,0-7.61-7.62A7.62,7.62,0,0,0,17.93,15.24Z"/><path d="M19.39,11.65H16.58a.71.71,0,0,1-.71-.71V8.13a.7.7,0,0,1,.71-.7h2.81a.7.7,0,0,1,.7.7v2.81A.7.7,0,0,1,19.39,11.65Zm0-.71V8.13H16.58v2.81Z"/><path d="M19.39,11.85a.9.9,0,0,0,.9-.91V8.13a.9.9,0,0,0-.9-.9H16.58a.9.9,0,0,0-.91.9v2.81a.91.91,0,0,0,.91.91Zm0-.4H16.58a.51.51,0,0,1-.51-.51V8.13a.5.5,0,0,1,.51-.5h2.81a.5.5,0,0,1,.5.5v2.81A.5.5,0,0,1,19.39,11.45Zm-.2-.51.2-.2H16.58l.2.2V8.13l-.2.2h2.81l-.2-.2Zm.4,0v-3H16.38v3.21h3.21Z"/><path d="M16.93,7.43H19V6.72H16.93Zm-.35.7a.35.35,0,0,1-.35-.35V6.37A.35.35,0,0,1,16.58,6h2.81a.35.35,0,0,1,.35.35V7.78a.35.35,0,0,1-.35.35Z"/><path d="M16.93,7.23l.2.2V6.72l-.2.2H19l-.2-.2v.71l.2-.2Zm0,.4h2.31V6.52H16.73V7.63Zm-.35.7h2.81a.55.55,0,0,0,.55-.55V6.37a.55.55,0,0,0-.55-.55H16.58a.55.55,0,0,0-.55.55V7.78A.55.55,0,0,0,16.58,8.33Zm0-.4a.15.15,0,0,1-.15-.15V6.37a.15.15,0,0,1,.15-.15h2.81a.15.15,0,0,1,.15.15V7.78a.15.15,0,0,1-.15.15Z"/><path d="M18.69,6.72H17.28a.35.35,0,0,1-.34-.44l.7-2.81a.35.35,0,0,1,.68,0L19,6.28A.35.35,0,0,1,18.69,6.72ZM18.24,6,18,5l-.25,1Z"/><path d="M18.69,6.92a.55.55,0,0,0,.53-.68l-.7-2.82a.55.55,0,0,0-1.07,0l-.7,2.82a.55.55,0,0,0,.53.68Zm0-.4H17.28a.15.15,0,0,1-.15-.19l.71-2.81a.15.15,0,0,1,.29,0l.7,2.81A.14.14,0,0,1,18.69,6.52ZM18,6.07l.2-.25h-.51l.19.25.26-1h-.39Zm.39-.1-.25-1L18,4.18,17.79,5l-.25,1-.07.25h1Z"/><path d="M18.69,9.71h.7V9.36h-.7Zm-.35.35c-.2,0-.36-.08-.36-.17V9.18c0-.09.16-.17.36-.17h1.4c.2,0,.35.08.35.17v.71c0,.09-.15.17-.35.17Z"/><path d="M18.69,9.51l.2.2V9.36l-.2.2h.7l-.2-.2v.35l.2-.2Zm0,.4h.9V9.16h-1.1v.75Zm-.35.35h1.4c.29,0,.55-.13.55-.37V9.18c0-.24-.26-.37-.55-.37h-1.4c-.3,0-.56.13-.56.37v.71C17.78,10.13,18,10.26,18.34,10.26Zm0-.4c-.1,0-.16,0-.16,0V9.18c0,.05.06,0,.16,0h1.4c.1,0,.15,0,.15,0v.71c0-.05-.05,0-.15,0Z"/></g></g></g></svg>