<svg xmlns="http://www.w3.org/2000/svg" viewBox="0 0 24.9 21.79"><title>deposit_refund</title><g id="图层_2" data-name="图层 2"><g id="应用"><g id="deposit_refund"><path d="M14.9,4.74a2.92,2.92,0,0,0-3.24-.51,2.19,2.19,0,0,0-1,2.21,2,2,0,0,0,1.19,1.49,3.87,3.87,0,0,0,1.1.29,1.53,1.53,0,0,1,.45.13l0,0s0-.07,0-.06c-.19.26-.76.29-1.55-.3a1,1,0,0,0-1.19,1.61c1.61,1.2,3.43,1.1,4.34-.11s.14-3-1.81-3.29a1.77,1.77,0,0,1-.53-.13c-.07,0-.07,0-.06,0A.19.19,0,0,1,12.68,6a.29.29,0,0,1,.2,0,2.43,2.43,0,0,1,.86.42,1,1,0,0,0,1.4-.23A1,1,0,0,0,14.9,4.74Z"/><path d="M11.83,4.11v.75a1,1,0,1,0,2,0V4.11a1,1,0,1,0-2,0Z"/><path d="M11.83,9.47v1a1,1,0,0,0,2,0v-1a1,1,0,0,0-2,0Z"/><path d="M9.13,10.45a5,5,0,1,1,6.36.87,1,1,0,0,0,1,1.71A7,7,0,1,0,7.66,11.8a1,1,0,1,0,1.47-1.35Z"/><path d="M3.83,11.86v8.93a1,1,0,1,0,2,0V11.86a1,1,0,0,0-2,0Z"/><path d="M2.41,19.8A.49.49,0,0,1,2,19.38l-1,.13H2V13.13a.27.27,0,0,1,.07-.21.24.24,0,0,1,.17-.07H4.83a1,1,0,0,0,0-2H2.28a2.19,2.19,0,0,0-1.63.65A2.24,2.24,0,0,0,0,13.17v6.48a2.48,2.48,0,0,0,2.13,2.13,1,1,0,1,0,.27-2Z"/><path d="M10.21,16.62h6.25a1,1,0,0,0,.34-.07l5.75-2.1a.28.28,0,0,1,.33.15.27.27,0,0,1-.12.35l.5.87-.42-.91-10.6,5,.63-.08L5.08,18.13a1,1,0,0,0-1.19.77,1,1,0,0,0,.77,1.18l7.79,1.69a1,1,0,0,0,.64-.07l10.6-5,.07,0a2.28,2.28,0,0,0-1.89-4.13l-5.75,2.12.34-.06H10.21a1,1,0,1,0,0,2Z"/><path d="M4.87,14.07h8.52a1,1,0,0,0,0-2H4.87a1,1,0,0,0,0,2Z"/></g></g></g></svg>