<svg xmlns="http://www.w3.org/2000/svg" viewBox="0 0 48 42"><title>equipment_io</title><g id="图层_2" data-name="图层 2"><g id="应用"><g id="equipment_io"><path d="M47,20H45A21,21,0,0,0,3,20H1a1,1,0,0,0,0,2H3a21,21,0,0,0,7.35,15,.77.77,0,0,0,.73.14.75.75,0,0,0,.49-.57.74.74,0,0,0-.24-.7A19.5,19.5,0,1,1,24,40.52a18.91,18.91,0,0,1-5.69-.85.75.75,0,0,0-.94.88.77.77,0,0,0,.51.55A21,21,0,0,0,45,22h2a1,1,0,0,0,0-2Z"/><circle cx="29.83" cy="21" r="0.83"/><circle cx="18.17" cy="14.33" r="0.83"/><path d="M29,16.35l.24.24a.85.85,0,0,0,1.18,0,.83.83,0,0,0,0-1.18l-1.66-1.67h0a1,1,0,0,0-.26-.18.88.88,0,0,0-.64,0,1.27,1.27,0,0,0-.27.18h0l-1.67,1.67a.83.83,0,0,0,1.18,1.18l.24-.24v1.32a1.25,1.25,0,0,1-2.5,0A2.91,2.91,0,0,0,19.1,17a2.48,2.48,0,1,0,1.74.09,1.22,1.22,0,0,1,1.08-.63,1.25,1.25,0,0,1,1.25,1.25,2.92,2.92,0,0,0,5.83,0Zm-9.17,3.82a.84.84,0,0,1-.83-.84.83.83,0,0,1,.83-.83.84.84,0,0,1,.84.83A.85.85,0,0,1,19.83,20.17Z"/><path d="M24,3A18,18,0,1,0,42,21,18,18,0,0,0,24,3Zm4.17,28H19.83a.83.83,0,0,1-.83-.83.84.84,0,0,1,.83-.84H20l.41-1.66h-4.1A2.33,2.33,0,0,1,14,25.34V23.5h0V13.33A2.33,2.33,0,0,1,16.33,11H31.67A2.33,2.33,0,0,1,34,13.33V23.5h0v1.84a2.33,2.33,0,0,1-2.33,2.33h-4.1L28,29.33h.19a.84.84,0,0,1,.83.84A.83.83,0,0,1,28.17,31ZM36,32a1,1,0,0,1-1,1H31a1,1,0,0,1-1-1c0-.55,4.45-5,5-5a1,1,0,0,1,1,1Z"/><polygon points="22.15 27.67 21.73 29.33 26.27 29.33 25.85 27.67 22.15 27.67"/><path d="M15.67,25.34a.66.66,0,0,0,.66.66H31.67a.66.66,0,0,0,.66-.66v-.26a.75.75,0,0,0-.75-.75H16.42a.75.75,0,0,0-.75.75Z"/></g></g></g></svg>