<svg xmlns="http://www.w3.org/2000/svg" viewBox="0 0 24 24"><title>goods_letin</title><g id="图层_2" data-name="图层 2"><g id="应用"><g id="goods_letin"><path class="cls-1" d="M0,21.6V8.4A2.39,2.39,0,0,1,2.4,6H9.6A2.4,2.4,0,0,1,12,8.4V21.6A2.4,2.4,0,0,1,9.6,24H2.4A2.39,2.39,0,0,1,0,21.6Zm2-.87A1.3,1.3,0,0,0,3.33,22H8.67A1.3,1.3,0,0,0,10,20.73V9.27A1.3,1.3,0,0,0,8.67,8H3.33A1.3,1.3,0,0,0,2,9.27ZM2,3.59C2,2.92,2,2,3,2H17.77A1.2,1.2,0,0,1,19,3.16v11.3l-1-.9a1.24,1.24,0,0,0-1.72.06,1.17,1.17,0,0,0,.06,1.68l2.27,2.06a1.81,1.81,0,0,0,2.76,0l2.25-2a1.16,1.16,0,0,0,.05-1.69,1.25,1.25,0,0,0-1.73-.1l-.93.94V2.39A2.55,2.55,0,0,0,18.4,0H2.45A2.42,2.42,0,0,0,0,2.39v1.2c0,.66.33,1.19,1,1.19S2,4.25,2,3.59Z"/><rect x="4" y="16" width="4" height="4" rx="1.99" ry="1.99"/></g></g></g></svg>