<svg xmlns="http://www.w3.org/2000/svg" viewBox="0 0 48 42"><defs><style>.cls-1{fill-rule:evenodd;}</style></defs><title>living_room</title><g id="图层_2" data-name="图层 2"><g id="应用"><g id="living_room"><path d="M47,20H45A21,21,0,0,0,3,20H1a1,1,0,0,0,0,2H3a21,21,0,0,0,7.35,15,.77.77,0,0,0,.73.14.75.75,0,0,0,.49-.57.74.74,0,0,0-.24-.7A19.5,19.5,0,1,1,24,40.52a18.91,18.91,0,0,1-5.69-.85.75.75,0,0,0-.94.88.77.77,0,0,0,.51.55A21,21,0,0,0,45,22h2a1,1,0,0,0,0-2Z"/><path class="cls-1" d="M24,3A18,18,0,1,0,42,21,18,18,0,0,0,24,3Zm6.6,18H29.29l-1.43,9.3a2,2,0,0,1-2,1.7H21.32a2,2,0,0,1-2-1.7L17.91,21H16.6a1,1,0,0,1,0-2h6V14a2,2,0,0,1,2-2h3a1,1,0,0,1,0,2h-2a1,1,0,0,0-1,1v4h6a1,1,0,0,1,0,2Z"/><path class="cls-1" d="M21.6,23.48a1,1,0,0,1,.68-1.08,1.09,1.09,0,0,1,1.24.42.1.1,0,0,0,.16,0,1.1,1.1,0,0,1,1.15-.45,1.06,1.06,0,0,1,.77,1.13,2,2,0,0,1-.73,1.37l-.61.54a1,1,0,0,1-1.32,0l-.64-.57A1.88,1.88,0,0,1,21.6,23.48Z"/></g></g></g></svg>