<svg xmlns="http://www.w3.org/2000/svg" viewBox="0 0 48 42"><defs><style>.cls-1{fill-rule:evenodd;}</style></defs><title>living_consumption</title><g id="图层_2" data-name="图层 2"><g id="首页"><path id="living_consumption" class="cls-1" d="M19.07,16.29h-.82l4.72-4a.7.7,0,0,0,.06-1A.79.79,0,0,0,22,11.19l-6,5.1h-.1A1.9,1.9,0,0,0,14.4,17,1.76,1.76,0,0,0,14,18.46l1.32,7.81a.8.8,0,0,0,.89.73h15.5a.79.79,0,0,0,.88-.73L34,18.43A1.69,1.69,0,0,0,33.59,17a1.9,1.9,0,0,0-1.44-.69H30.46l-4.4-4a1.87,1.87,0,0,0-2.61,0ZM35.8,32.75a1,1,0,0,0,.3-.7v-4a1,1,0,0,0-1-1c-.56,0-5,4.45-5,5a1,1,0,0,0,1,1h4A1,1,0,0,0,35.8,32.75ZM31,28H17a3.13,3.13,0,0,0,6.13.73h1.74A3.13,3.13,0,0,0,31,28ZM24,3h0A18,18,0,1,1,6,21,18,18,0,0,1,24,3ZM45,22a21,21,0,0,1-27.1,19.1.77.77,0,0,1-.51-.55.75.75,0,0,1,.94-.88,18.91,18.91,0,0,0,5.69.85,19.5,19.5,0,1,0-12.65-4.66.74.74,0,0,1,.24.7.75.75,0,0,1-.49.57.77.77,0,0,1-.73-.14A21,21,0,0,1,3,22H1a1,1,0,0,1,0-2H3a21,21,0,0,1,42,0h2a1,1,0,0,1,0,2H45ZM24,21h.43V20.5H24Zm0,2.49h1c.16,0,.3-.16.3-.49s-.15-.5-.3-.5H24ZM24,25v0a1,1,0,0,1-2,0v0h-.14a.76.76,0,1,1,0-1.5H22v-3h-.14a.76.76,0,1,1,0-1.5H22a1,1,0,0,1,2,0h.43a1.73,1.73,0,0,1,1.64,2.3A2,2,0,0,1,27,23a1.93,1.93,0,0,1-2,2Z"/></g></g></svg>