<svg xmlns="http://www.w3.org/2000/svg" viewBox="0 0 16 18"><defs><style>.cls-1{fill-rule:evenodd;}</style></defs><title>notification_center</title><g id="图层_2" data-name="图层 2"><g id="首页"><g id="notification_center"><g id="notification_center-2" data-name="notification_center"><path d="M2,13.52a2,2,0,0,1-2-2v-5a2,2,0,0,1,2-2H4.13L6.62.74A1.25,1.25,0,0,1,9,1.47V16.53a1.25,1.25,0,0,1-2.38.73L4.13,13.52Zm3.2-7H2v5H5.2L7,14.22V3.79Z"/><path class="cls-1" d="M10,5a5.92,5.92,0,0,1,.62.06,5.2,5.2,0,0,1,1.43.46A3.5,3.5,0,0,1,14,9a3.5,3.5,0,0,1-1.95,3.48,5.2,5.2,0,0,1-1.43.46A5.92,5.92,0,0,1,10,13v2A6.77,6.77,0,0,0,13,14.27,5.49,5.49,0,0,0,16,9,5.49,5.49,0,0,0,13,3.73,6.77,6.77,0,0,0,10,3Z"/><path class="cls-1" d="M10,8a1.46,1.46,0,0,1,.55.14A.82.82,0,0,1,11,9a.82.82,0,0,1-.45.86A1.46,1.46,0,0,1,10,10v2a3.3,3.3,0,0,0,1.45-.36A2.78,2.78,0,0,0,13,9a2.78,2.78,0,0,0-1.55-2.64A3.3,3.3,0,0,0,10,6Z"/><path class="cls-1" d="M8,0H8A1,1,0,0,1,9,1V17a1,1,0,0,1-2,0V1A1,1,0,0,1,8,0Z"/></g></g></g></g></svg>