<svg xmlns="http://www.w3.org/2000/svg" xmlns:xlink="http://www.w3.org/1999/xlink" viewBox="0 0 20 20"><title>park_service</title><g id="图层_2" data-name="图层 2"><g id="首页"><g id="park_service"><path class="cls-1" d="M10,0A10,10,0,1,0,20,10,10,10,0,0,0,10,0Zm0,2a8,8,0,0,1,7.41,5H14A5,5,0,0,0,6,7H2.59A8,8,0,0,1,10,2ZM2.07,9h3a5,5,0,0,0,0,2h-3A7.44,7.44,0,0,1,2.07,9ZM7,17.41A8,8,0,0,1,2.59,13H6c.28.37,1,.7,1,1ZM9,18h2V15H9Zm1-5c-4,0-4-6,0-6S14,13,10,13Zm3,4.41V14a2,2,0,0,0,1-1h3.43A8,8,0,0,1,13,17.41ZM14.9,11a5,5,0,0,0,0-2h3a7.44,7.44,0,0,1,0,2Z"/><path d="M10,5h0a5,5,0,1,1-5,5A5,5,0,0,1,10,5Z"/><g class="cls-2"><path d="M10,2.48A7.52,7.52,0,1,0,17.52,10,7.52,7.52,0,0,0,10,2.48Zm0,5A2.52,2.52,0,1,1,7.48,10,2.52,2.52,0,0,1,10,7.48Z"/></g></g></g></g></svg>