<svg xmlns="http://www.w3.org/2000/svg" viewBox="0 0 48 42"><defs><style>.cls-1{fill-rule:evenodd;}</style></defs><title>park_activity</title><g id="图层_2" data-name="图层 2"><g id="首页"><path id="park_activity" class="cls-1" d="M24,13l2,2H22ZM22,27h4l-2,2Zm8-8,2,2-2,2ZM16,21l2-2v4Zm14-5a1,1,0,0,1-1-1V13a2,2,0,0,0-2-2H21a2,2,0,0,0-2,2v2a1,1,0,0,1-1,1H16a2,2,0,0,0-2,2v6a2,2,0,0,0,2,2h2a1,1,0,0,1,1,1v2a2,2,0,0,0,2,2h6a2,2,0,0,0,2-2V27a1,1,0,0,1,1-1h2a2,2,0,0,0,2-2V18a2,2,0,0,0-2-2ZM24,3h0A18,18,0,1,1,6,21,18,18,0,0,1,24,3ZM45,21A21,21,0,0,1,17.88,41.1a.77.77,0,0,1-.51-.55.75.75,0,0,1,.94-.88,18.91,18.91,0,0,0,5.69.85,19.5,19.5,0,1,0-12.65-4.66.74.74,0,0,1,.24.7.75.75,0,0,1-.49.57.77.77,0,0,1-.73-.14A21,21,0,0,1,3,21H1a1,1,0,0,1,0-2H3.1a21,21,0,0,1,41.81,0H47a1,1,0,0,1,0,2Z"/></g></g></svg>