<svg xmlns="http://www.w3.org/2000/svg" viewBox="0 0 48 42"><title>settle_io</title><g id="图层_2" data-name="图层 2"><g id="应用"><g id="settle_io"><path d="M47,20H45A21,21,0,0,0,3,20H1a1,1,0,0,0,0,2H3a21,21,0,0,0,7.35,15,.77.77,0,0,0,.73.14.75.75,0,0,0,.49-.57.74.74,0,0,0-.24-.7A19.5,19.5,0,1,1,24,40.52a18.91,18.91,0,0,1-5.69-.85.75.75,0,0,0-.94.88.77.77,0,0,0,.51.55A21,21,0,0,0,45,22h2a1,1,0,0,0,0-2Z"/><path d="M26.16,25.44H17.32a.78.78,0,1,0,0,1.56h8.84a.78.78,0,0,0,0-1.56Z"/><path d="M17.32,24.56h4.42a.78.78,0,0,0,0-1.56H17.32a.78.78,0,1,0,0,1.56Z"/><path d="M24,3A18,18,0,1,0,42,21,18,18,0,0,0,24,3Zm5.7,25.66a1.89,1.89,0,0,1-1.89,1.89H15.66a1.89,1.89,0,0,1-1.88-1.89V16.37h0a1.88,1.88,0,0,1,1.87-1.75h6.6a6,6,0,1,1,7.44,7.82ZM36,32a1,1,0,0,1-1,1H31a1,1,0,0,1-1-1c0-.55,4.45-5,5-5a1,1,0,0,1,1,1Z"/><path d="M27.81,12.26a4.53,4.53,0,1,0,4.53,4.53A4.53,4.53,0,0,0,27.81,12.26Zm1,7.71H27.26a.76.76,0,0,1,0-1.51h1.51a.76.76,0,0,1,0,1.51Zm1.08-3.52-1.47,1.46a.48.48,0,0,1-.36.16.49.49,0,0,1-.37-.16l-1.47-1.46a.52.52,0,0,1,0-.73.5.5,0,0,1,.73,0l.59.58V14.24a.52.52,0,1,1,1,0V16.3l.59-.58a.5.5,0,0,1,.73,0A.52.52,0,0,1,29.85,16.45Z"/></g></g></g></svg>