<svg xmlns="http://www.w3.org/2000/svg" viewBox="0 0 48 42"><title>big_events</title><g id="图层_2" data-name="图层 2"><g id="应用"><g id="big_events"><path d="M47,20H45A21,21,0,0,0,3,20H1a1,1,0,0,0,0,2H3a21,21,0,0,0,7.35,15,.77.77,0,0,0,.73.14.75.75,0,0,0,.49-.57.74.74,0,0,0-.24-.7A19.5,19.5,0,1,1,24,40.52a18.91,18.91,0,0,1-5.69-.85.75.75,0,0,0-.94.88.77.77,0,0,0,.51.55A21,21,0,0,0,45,22h2a1,1,0,0,0,0-2Z"/><path d="M22.33,15.17A1.67,1.67,0,1,1,24,16.83,1.67,1.67,0,0,1,22.33,15.17Z"/><path d="M19,28.5H29a1.67,1.67,0,0,0,1.44-.83H17.56A1.67,1.67,0,0,0,19,28.5Z"/><path d="M24,3A18,18,0,1,0,42,21,18,18,0,0,0,24,3ZM34,26.83a.84.84,0,0,1-.83.84h-1A3.35,3.35,0,0,1,29,30.17H19a3.35,3.35,0,0,1-3.22-2.5h-.95a.84.84,0,0,1-.83-.84V25.17a2.5,2.5,0,0,1,2.5-2.5h4.17a.84.84,0,0,0,.83-.84,5,5,0,0,0-1.15-3.18,5.14,5.14,0,0,1-1.32-3v-.13c0-.15,0-.21,0-.29v-.08a5,5,0,0,1,10,0v.08c0,.08,0,.14,0,.29v.13a5.14,5.14,0,0,1-1.32,3,5,5,0,0,0-1.15,3.18.84.84,0,0,0,.83.84H31.5a2.5,2.5,0,0,1,2.5,2.5Z"/></g></g></g></svg>