<svg xmlns="http://www.w3.org/2000/svg" viewBox="0 0 48 42"><defs><style>.cls-1{fill-rule:evenodd;}</style></defs><title>book_dinner</title><g id="图层_2" data-name="图层 2"><g id="应用"><g id="book_dinner"><path d="M47,20H45A21,21,0,0,0,3,20H1a1,1,0,0,0,0,2H3a21,21,0,0,0,7.35,15,.77.77,0,0,0,.73.14.75.75,0,0,0,.49-.57.74.74,0,0,0-.24-.7A19.5,19.5,0,1,1,24,40.52a18.91,18.91,0,0,1-5.69-.85.75.75,0,0,0-.94.88.77.77,0,0,0,.51.55A21,21,0,0,0,45,22h2a1,1,0,0,0,0-2Z"/><path class="cls-1" d="M29.83,27a1,1,0,1,0,1,1A1,1,0,0,0,29.83,27Z"/><path class="cls-1" d="M19.83,27a1,1,0,1,0,1,1A1,1,0,0,0,19.83,27Z"/><path class="cls-1" d="M24,3A18,18,0,1,0,42,21,18,18,0,0,0,24,3ZM35,26a2.07,2.07,0,0,1-2.09,2,3.07,3.07,0,0,1-3.08,3,3,3,0,0,1-3-3h-4a3,3,0,1,1-5.92,0A1.92,1.92,0,0,1,15,26V13a1.86,1.86,0,0,1,1.83-2h10A2.16,2.16,0,0,1,29,13v9h3.83A2.16,2.16,0,0,1,35,24Z"/><rect x="15" y="20" width="14" height="2"/><rect x="15" y="17" width="14" height="2"/><rect x="18.5" y="15.5" width="11" height="2" transform="translate(40.5 -7.5) rotate(90)"/><rect x="13.5" y="15.5" width="11" height="2" transform="translate(35.5 -2.5) rotate(90)"/></g></g></g></svg>