<svg xmlns="http://www.w3.org/2000/svg" viewBox="0 0 48 42"><title>park_bus</title><g id="图层_2" data-name="图层 2"><g id="首页"><g id="park_bus"><path d="M47,20H45A21,21,0,0,0,3,20H1a1,1,0,0,0,0,2H3a21,21,0,0,0,7.35,15,.77.77,0,0,0,.73.14.75.75,0,0,0,.49-.57.74.74,0,0,0-.24-.7A19.5,19.5,0,1,1,24,40.52a18.91,18.91,0,0,1-5.69-.85.75.75,0,0,0-.94.88.77.77,0,0,0,.51.55A21,21,0,0,0,45,22h2a1,1,0,0,0,0-2Z"/><circle cx="30" cy="26.1" r="1"/><path d="M20.37,15.73h-.94l-.19.94h1a1,1,0,0,0,.48-.11.51.51,0,0,0,.25-.37q.06-.3-.15-.39A1.34,1.34,0,0,0,20.37,15.73Z"/><circle cx="18" cy="26.1" r="1"/><path d="M24,3A18,18,0,1,0,42,21,18,18,0,0,0,24,3ZM34,21.1v6a2,2,0,0,1-2,2v1a.92.92,0,0,1-1,.9H29a.92.92,0,0,1-1-.9V29H20v1.1a.92.92,0,0,1-1,.9H17a.92.92,0,0,1-1-.9v-1a2,2,0,0,1-2-2v-14A2.09,2.09,0,0,1,16,11H32a2.09,2.09,0,0,1,2,2.1Z"/><path d="M31,13H17a1.09,1.09,0,0,0-1,1.1V21H32V14.1A1.09,1.09,0,0,0,31,13Zm-9.12,3.09a1.27,1.27,0,0,1-.33.63,1.32,1.32,0,0,1-.37.24.7.7,0,0,1,.41.38,1.05,1.05,0,0,1,0,.62,1.6,1.6,0,0,1-.33.68,1.7,1.7,0,0,1-.38.33,1.55,1.55,0,0,1-.53.21,2.93,2.93,0,0,1-.61.06H17.84L18.75,15h2.06a1.07,1.07,0,0,1,1,.45A1,1,0,0,1,21.88,16.09Zm3.54,2.57a2,2,0,0,1-1.64.69c-.74,0-1.19-.23-1.36-.69a2.12,2.12,0,0,1,0-1.06L23,15h.91l-.56,2.61a1.45,1.45,0,0,0,0,.64q.09.36.63.36a.85.85,0,0,0,.77-.36A1.58,1.58,0,0,0,25,17.6L25.51,15h.9l-.56,2.61A2.61,2.61,0,0,1,25.42,18.66Zm4.71-2.4h-.85a.5.5,0,0,0-.22-.55,1,1,0,0,0-.49-.1,1.13,1.13,0,0,0-.58.13.62.62,0,0,0-.29.39.29.29,0,0,0,.13.34,2.19,2.19,0,0,0,.52.18l.69.17a1.45,1.45,0,0,1,.66.31.88.88,0,0,1,.2.87,1.59,1.59,0,0,1-.65,1,2.28,2.28,0,0,1-1.34.38A1.72,1.72,0,0,1,26.68,19a1,1,0,0,1-.25-1h.84a.6.6,0,0,0,.76.7,1.87,1.87,0,0,0,.52-.07.66.66,0,0,0,.48-.5.28.28,0,0,0-.12-.32,1.46,1.46,0,0,0-.53-.2l-.43-.1a2.23,2.23,0,0,1-.85-.33.84.84,0,0,1-.23-.92,1.54,1.54,0,0,1,.61-.94,2,2,0,0,1,1.3-.38,1.57,1.57,0,0,1,1.07.35A1.05,1.05,0,0,1,30.13,16.26Z"/><path d="M20.14,17.37H19.09l-.24,1.13h1a1.12,1.12,0,0,0,.45-.07.7.7,0,0,0,.4-.53.39.39,0,0,0-.18-.46A1.06,1.06,0,0,0,20.14,17.37Z"/></g></g></g></svg>