<svg xmlns="http://www.w3.org/2000/svg" viewBox="0 0 48 42"><defs><style>.cls-1{fill-rule:evenodd;}</style></defs><title>canvass_business_center</title><g id="图层_2" data-name="图层 2"><g id="首页"><g id="canvass_business_center"><path class="cls-1" d="M24.76,24c1,0,1.45,1,1.15,2a3.08,3.08,0,0,1-.86,1.23c-.19.17-.39.33-.58.47l-.28.18L24,28l-.2-.12-.27-.18a6.13,6.13,0,0,1-.58-.48A3,3,0,0,1,22.09,26c-.3-1,.15-2,1.15-2a.9.9,0,0,1,.76.34A.92.92,0,0,1,24.76,24Z"/><path class="cls-1" d="M24,3A18,18,0,1,0,42,21,18,18,0,0,0,24,3Zm-3,7h6c1.69,0,2.22,1.24,1.94,2.6l-.45,2.24A2.88,2.88,0,0,1,25.78,17H22.22a2.86,2.86,0,0,1-2.69-2.16l-.46-2.24C18.79,11.24,19.32,10,21,10ZM29.3,28.25,26,31.34a3.47,3.47,0,0,1-4.06,0L18.7,28.27a2.1,2.1,0,0,1-.61-2.17l1.5-6.72A2.17,2.17,0,0,1,21.88,18h3.54c2,0,2.7.42,3,1.38l1.5,6.67A2.14,2.14,0,0,1,29.3,28.25Z"/><path class="cls-1" d="M45,22a21,21,0,0,1-27.1,19.1.77.77,0,0,1-.51-.55.75.75,0,0,1,.94-.88,18.91,18.91,0,0,0,5.69.85,19.5,19.5,0,1,0-12.65-4.66.74.74,0,0,1,.24.7.75.75,0,0,1-.49.57.77.77,0,0,1-.73-.14A21,21,0,0,1,3,22H1a1,1,0,0,1,0-2H3a21,21,0,0,1,42,0h2a1,1,0,0,1,0,2H45Z"/></g></g></g></svg>