<svg xmlns="http://www.w3.org/2000/svg" viewBox="0 0 48 42"><title>certificate_employee</title><g id="图层_2" data-name="图层 2"><g id="应用"><g id="certificate_employee"><path d="M47,20H45A21,21,0,0,0,3,20H1a1,1,0,0,0,0,2H3a21,21,0,0,0,7.35,15,.77.77,0,0,0,.73.14.75.75,0,0,0,.49-.57.74.74,0,0,0-.24-.7A19.5,19.5,0,1,1,24,40.52a18.91,18.91,0,0,1-5.69-.85.75.75,0,0,0-.94.88.77.77,0,0,0,.51.55A21,21,0,0,0,45,22h2a1,1,0,0,0,0-2Z"/><path d="M25.67,24.33a.85.85,0,0,0-.84-.84H23.17a.85.85,0,0,0-.84.84.84.84,0,0,0,.84.83h1.66A.84.84,0,0,0,25.67,24.33Z"/><path d="M24,3A18,18,0,1,0,42,21,18,18,0,0,0,24,3ZM34.6,29.52c-1.9,2-19.23,2-21.19,0a.84.84,0,0,1-.25-.6,3.69,3.69,0,0,1,1.21-2.71,4.1,4.1,0,0,1,2.84-1.07.83.83,0,0,1,.84.85.86.86,0,0,1-.86.84,2.43,2.43,0,0,0-1.67.62,2,2,0,0,0-.62,1.05c1.12.49,4.61.76,8.27.79v-.9a6,6,0,0,1-5-5.68v-.91a.66.66,0,0,1-.24,0,1.81,1.81,0,0,1-1.39-1.9V19A1.26,1.26,0,0,1,17,17.8a1.88,1.88,0,0,1,.42-.27.94.94,0,0,1,.16-.35,4.24,4.24,0,0,1-1-2.68V11.83a.83.83,0,0,1,.83-.83h8.22a.79.79,0,0,1,.6.26,5.39,5.39,0,0,1,1.25,2.4H28.7a1.93,1.93,0,0,1,2,1.9v1.07a.44.44,0,0,1,0,.1.3.3,0,0,1,0,.1v.82a2,2,0,0,1,.39.25,1.22,1.22,0,0,1,.41,1.22v1c.14.85-.56,1.51-1.48,1.68a.75.75,0,0,1-.15,0v.94a6,6,0,0,1-4.76,5.6l-.24,0v.94c3.67,0,7.17-.3,8.27-.79a2,2,0,0,0-.62-1.06,2.43,2.43,0,0,0-1.67-.62A.86.86,0,0,1,30,26a.83.83,0,0,1,.84-.85,4.1,4.1,0,0,1,2.84,1.07,3.69,3.69,0,0,1,1.21,2.71A.87.87,0,0,1,34.6,29.52Z"/><rect x="17.99" y="18.03" width="12" height="3" rx="1" ry="1"/></g></g></g></svg>