<svg xmlns="http://www.w3.org/2000/svg" viewBox="0 0 48 42"><title>complaints_advices</title><g id="图层_2" data-name="图层 2"><g id="应用"><g id="complaints_advices"><path d="M47,20H45A21,21,0,0,0,3,20H1a1,1,0,0,0,0,2H3a21,21,0,0,0,7.35,15,.77.77,0,0,0,.73.14.75.75,0,0,0,.49-.57.74.74,0,0,0-.24-.7A19.5,19.5,0,1,1,24,40.52a18.91,18.91,0,0,1-5.69-.85.75.75,0,0,0-.94.88.77.77,0,0,0,.51.55A21,21,0,0,0,45,22h2a1,1,0,0,0,0-2Z"/><path d="M23.78,3.2a18,18,0,1,0,18,18A18,18,0,0,0,23.78,3.2Zm-3,18.21a1.25,1.25,0,0,1-1.24,1.24h-.41a1.25,1.25,0,0,1-1.24-1.24V21a1.24,1.24,0,0,1,1.24-1.24h.41A1.24,1.24,0,0,1,20.74,21Zm15,1a2,2,0,0,1-1.92,2H32.48a9.52,9.52,0,0,1-6.29,6.09,2,2,0,0,1-1.68.92H23a2,2,0,1,1,0-4h1.47a2,2,0,0,1,1.86,1.27,8.38,8.38,0,0,0,4.81-9.78c-1.05-4.4-5.18-7-9.23-6s-6.58,5.57-5.56,10a.58.58,0,0,1,0,.19v.06l.05.24a.84.84,0,0,1-.82,1h-2a2,2,0,0,1-1.91-2V19.45a2,2,0,0,1,1.91-2,.85.85,0,0,1,.23,0h0l1.07.27a9.48,9.48,0,0,1,6.5-6.43,9.19,9.19,0,0,1,11.07,6.49l1-.31h0l.25-.07v0h.07a2,2,0,0,1,1.87,2Zm-14.11-.89v-.55a1.65,1.65,0,0,1,1.65-1.65h.55a1.65,1.65,0,0,1,1.65,1.65v.55a1.65,1.65,0,0,1-1.65,1.65h-.55A1.65,1.65,0,0,1,21.67,21.48Zm4.9-.07V21a1.23,1.23,0,0,1,1.23-1.24h.41A1.23,1.23,0,0,1,29.45,21v.41a1.24,1.24,0,0,1-1.24,1.24H27.8A1.24,1.24,0,0,1,26.57,21.41Z"/></g></g></g></svg>