<svg xmlns="http://www.w3.org/2000/svg" viewBox="0 0 48 42"><defs><style>.cls-1{fill-rule:evenodd;}</style></defs><title>convenient_store</title><g id="图层_2" data-name="图层 2"><g id="应用"><g id="convenient_store"><path d="M47,20H45A21,21,0,0,0,3,20H1a1,1,0,0,0,0,2H3a21,21,0,0,0,7.35,15,.77.77,0,0,0,.73.14.75.75,0,0,0,.49-.57.74.74,0,0,0-.24-.7A19.5,19.5,0,1,1,24,40.52a18.91,18.91,0,0,1-5.69-.85.75.75,0,0,0-.94.88.77.77,0,0,0,.51.55A21,21,0,0,0,45,22h2a1,1,0,0,0,0-2Z"/><path class="cls-1" d="M30.83,14H28.35a15.53,15.53,0,0,1,.1,5.16,7.15,7.15,0,0,0,3.43-.46,12.18,12.18,0,0,0-.06-3.82A1,1,0,0,0,30.83,14Z"/><path class="cls-1" d="M21.63,14a15.17,15.17,0,0,0-.12,4.8,7.59,7.59,0,0,0,5-.1,14.21,14.21,0,0,0-.18-4.7Z"/><path class="cls-1" d="M24,3A18,18,0,1,0,42,21,18,18,0,0,0,24,3Zm9.37,17.07a3.46,3.46,0,0,1-1.37.72V30a2,2,0,0,1-2,2H18a2,2,0,0,1-2-2V20.88a2.89,2.89,0,0,1-1.44-.81c-.84-1.05-.56-4.31-.27-6.35a2,2,0,0,1,2-1.72H31.69a2,2,0,0,1,2,1.69C34,15.76,34.33,19.1,33.37,20.07Z"/><path class="cls-1" d="M17.15,14a1,1,0,0,0-1,.9,12.51,12.51,0,0,0,0,3.9,7.15,7.15,0,0,0,3.4.32A17,17,0,0,1,19.62,14Z"/><path class="cls-1" d="M21,22a1,1,0,0,0-1,1v2a1,1,0,0,0,2,0V23A1,1,0,0,0,21,22Z"/><path class="cls-1" d="M28,25a1,1,0,0,1-2,0V23a1,1,0,0,1,2,0Z"/><path class="cls-1" d="M23,32V29a1,1,0,0,1,2,0v3Z"/></g></g></g></svg>