<svg xmlns="http://www.w3.org/2000/svg" viewBox="0 0 9.82 12"><defs><style>.cls-1{fill-rule:evenodd;}</style></defs><title>entrance_QRCode</title><g id="图层_2" data-name="图层 2"><g id="首页"><g id="entrance_QRCode"><path class="cls-1" d="M6.92.14h0a.72.72,0,0,1,.72.72V11.15a.72.72,0,1,1-1.44,0V.86A.72.72,0,0,1,6.92.14Z"/><path d="M2.63,9.49H3V9.07H2.63Zm1.22-1v.41h.41V8.45Zm1.23.41h.41V8.45H5.08Zm0,.83H4.67v.42h.82V9.28H5.08Zm-.82-.83v.83h.41V8.86Zm-.41,1.25h.41V9.69H3.85Zm1-2.9h-.4v.41h.4V7.21ZM2.42,8.86h.82v.83H2.42ZM2,10.11H3.65V8.45H2Zm.62-2.49H3V7.21H2.63Zm2.45.21H4.26V7h.82ZM3.85,6.59V8.24H5.49V6.59ZM2.42,7h.82v.83H2.42ZM2,8.24H3.65V6.59H2Z"/><path d="M2,10.51H7.82a.5.5,0,0,0,.49-.5V2a.5.5,0,0,0-.49-.5H2a.5.5,0,0,0-.48.5v8A.5.5,0,0,0,2,10.51ZM1.64,12A1.63,1.63,0,0,1,0,10.37V1.64A1.63,1.63,0,0,1,1.64,0H8.18A1.64,1.64,0,0,1,9.82,1.64v8.73A1.64,1.64,0,0,1,8.18,12Z"/></g></g></g></svg>