<svg xmlns="http://www.w3.org/2000/svg" viewBox="0 0 48 42"><title>geolocation</title><g id="图层_2" data-name="图层 2"><g id="应用"><g id="geolocation"><path d="M47,20H45A21,21,0,0,0,3,20H1a1,1,0,0,0,0,2H3a21,21,0,0,0,7.35,15,.77.77,0,0,0,.73.14.75.75,0,0,0,.49-.57.74.74,0,0,0-.24-.7A19.5,19.5,0,1,1,24,40.52a18.91,18.91,0,0,1-5.69-.85.75.75,0,0,0-.94.88.77.77,0,0,0,.51.55A21,21,0,0,0,45,22h2a1,1,0,0,0,0-2Z"/><path d="M24,3A18,18,0,1,0,42,21,18,18,0,0,0,24,3Zm6.84,10.23a1.54,1.54,0,1,1-1.53,1.54A1.54,1.54,0,0,1,30.84,13.23Zm2.35,11.44a10,10,0,0,1-13,5.52,9.84,9.84,0,0,1-4.59-3.75,9.7,9.7,0,0,1-1.08-2.16,10.23,10.23,0,0,1-.45-1.73,10,10,0,0,1,13.61-10.9.77.77,0,0,1-.58,1.43,8.46,8.46,0,0,0-11,4.67,8.52,8.52,0,0,0,.79,7.85,8.46,8.46,0,0,0,14.9-1.51,8.42,8.42,0,0,0,.34-5.31.77.77,0,1,1,1.48-.39A9.9,9.9,0,0,1,33.19,24.67ZM22.73,24.6l-.22-2.32L20.27,22A1.42,1.42,0,0,1,19,20.76a1.44,1.44,0,0,1,.86-1.5l7.12-3a1.42,1.42,0,0,1,1.83,1.94l-3.42,6.9a1.43,1.43,0,0,1-1.33.79.82.82,0,0,1-.21,0h0A1.42,1.42,0,0,1,22.73,24.6Z"/></g></g></g></svg>