<svg xmlns="http://www.w3.org/2000/svg" viewBox="0 0 24 24"><title>goods_letout</title><g id="图层_2" data-name="图层 2"><g id="应用"><g id="goods_letout"><path class="cls-1" d="M22,20.41c0,.67,0,1.62-1,1.62H6.23A1.2,1.2,0,0,1,5,20.84V9.54l1,.9a1.24,1.24,0,0,0,1.72-.06A1.17,1.17,0,0,0,7.67,8.7L5.4,6.64a1.81,1.81,0,0,0-2.76,0L.39,8.69a1.16,1.16,0,0,0,0,1.69,1.25,1.25,0,0,0,1.73.1L3,9.54V21.61A2.55,2.55,0,0,0,5.6,24h16A2.42,2.42,0,0,0,24,21.61v-1.2c0-.66-.33-1.19-1-1.19S22,19.75,22,20.41Z"/><path class="cls-1" d="M22,3.27A1.3,1.3,0,0,0,20.67,2H15.33A1.3,1.3,0,0,0,14,3.27V14.73A1.3,1.3,0,0,0,15.33,16h5.34A1.3,1.3,0,0,0,22,14.73Zm2-.87V15.6A2.39,2.39,0,0,1,21.6,18H14.4A2.4,2.4,0,0,1,12,15.6V2.4A2.4,2.4,0,0,1,14.4,0h7.2A2.39,2.39,0,0,1,24,2.4Z"/><rect x="16" y="10" width="4" height="4" rx="1.99" ry="1.99"/></g></g></g></svg>