<svg xmlns="http://www.w3.org/2000/svg" viewBox="0 0 24 24"><title>individual_visitors</title><g id="图层_2" data-name="图层 2"><g id="应用"><g id="individual_visitors"><path class="cls-1" d="M21.53,24H19.35a1.2,1.2,0,1,1,0-2.4h.53A1.2,1.2,0,0,0,21,20a9.42,9.42,0,0,0-9-5.59A9.42,9.42,0,0,0,3,20,1.2,1.2,0,0,0,4.12,21.6h.53a1.2,1.2,0,1,1,0,2.4H2.47A2.4,2.4,0,0,1,.05,21.16,11.42,11.42,0,0,1,7.4,12.81,7.11,7.11,0,0,1,4.65,7.2,7.36,7.36,0,0,1,19.26,6.08a7.1,7.1,0,0,1-2.66,6.73A11.42,11.42,0,0,1,24,21.16,2.4,2.4,0,0,1,21.53,24M16.9,7.2a4.9,4.9,0,0,0-9.8,0,4.9,4.9,0,0,0,9.8,0"/><path class="cls-1" d="M14.41,21.54h-1.2v1.2A1.19,1.19,0,0,1,12,23.94a1.12,1.12,0,0,1-1.19-1.19v-1.2H9.6a1.2,1.2,0,0,1,0-2.4h1.21V17.94a1.2,1.2,0,0,1,2.4,0v1.21h1.2a1.2,1.2,0,0,1,1.2,1.21A1.18,1.18,0,0,1,14.41,21.54Z"/></g></g></g></svg>