<svg xmlns="http://www.w3.org/2000/svg" viewBox="0 0 48 42"><defs><style>.cls-1{fill-rule:evenodd;}</style></defs><title>industry_map</title><g id="图层_2" data-name="图层 2"><g id="应用"><g id="industry_map"><path d="M47,20H45A21,21,0,0,0,3,20H1a1,1,0,0,0,0,2H3a21,21,0,0,0,7.35,15,.77.77,0,0,0,.73.14.75.75,0,0,0,.49-.57.74.74,0,0,0-.24-.7A19.5,19.5,0,1,1,24,40.52a18.91,18.91,0,0,1-5.69-.85.75.75,0,0,0-.94.88.77.77,0,0,0,.51.55A21,21,0,0,0,45,22h2a1,1,0,0,0,0-2Z"/><path class="cls-1" d="M24,3A18,18,0,1,0,42,21,18,18,0,0,0,24,3ZM15.9,27c-1.11,0-1.9-1.4-1.9-2.5v-12c0-1.11.79-1.5,1.9-1.5H18V27H15.9Zm5.4,3.14L20,28.46V11.21a1.48,1.48,0,0,1,.5.37L22,13.25v17.5A2.75,2.75,0,0,1,21.3,30.14ZM34,28.5c0,1.1-1,2.5-2.1,2.5H24V15a1,1,0,0,0,.23.05H31.9c1.1,0,2.1.39,2.1,1.5Z"/><path class="cls-1" d="M28.78,19.33h0A1.67,1.67,0,1,1,27.11,21,1.66,1.66,0,0,1,28.78,19.33Z"/></g></g></g></svg>