<svg xmlns="http://www.w3.org/2000/svg" viewBox="0 0 24 24"><title>industry_map</title><g id="图层_2" data-name="图层 2"><g id="应用"><g id="industry_map"><path class="cls-1" d="M21.48,4.8h-9.2a2.75,2.75,0,0,1-1.82-1.14L7.8.69A2.3,2.3,0,0,0,6,0H2.28C1,0,0,.47,0,1.8V16.2c0,1.33,1,3,2.28,3H4.43a2.2,2.2,0,0,1,1.87.59L8.76,23a2.56,2.56,0,0,0,1.86,1H21.48C22.8,24,24,22.33,24,21V6.6C24,5.27,22.8,4.8,21.48,4.8ZM4.8,16.8H3.48c-.67,0-1.08-1.14-1.08-1.8V3c0-.66.41-.6,1.08-.6H4.8Zm4.8,2.82-2.4-3V3.09L9.6,5.9Zm12,.18c0,.66-.66,1.8-1.32,1.8H12V7.2h8.28c.66,0,1.32-.06,1.32.6Z"/><path class="cls-1" d="M16.53,10h0a2,2,0,1,1-2,2A2,2,0,0,1,16.53,10Z"/></g></g></g></svg>