<svg xmlns="http://www.w3.org/2000/svg" viewBox="0 0 48 42"><title>office_handover</title><g id="图层_2" data-name="图层 2"><g id="应用"><g id="office_handover"><path d="M47,20H45A21,21,0,0,0,3,20H1a1,1,0,0,0,0,2H3a21,21,0,0,0,7.35,15,.77.77,0,0,0,.73.14.75.75,0,0,0,.49-.57.74.74,0,0,0-.24-.7A19.5,19.5,0,1,1,24,40.52a18.91,18.91,0,0,1-5.69-.85.75.75,0,0,0-.94.88.77.77,0,0,0,.51.55A21,21,0,0,0,45,22h2a1,1,0,0,0,0-2Z"/><path d="M24.55,20A1.55,1.55,0,0,0,23,18.53a1.65,1.65,0,0,0-1,.33,2.91,2.91,0,0,0,.42.25,3.63,3.63,0,0,0,.87.27A.72.72,0,1,1,23,20.8a5.33,5.33,0,0,1-1.29-.39c-.13-.06-.25-.14-.37-.21A1.6,1.6,0,0,0,24.55,20Z"/><path d="M24.4,15.8c0,.18,0,.33,0,.47l1.08.15a3.37,3.37,0,0,1,1.48.61,2.79,2.79,0,0,0,.11-.76,3.24,3.24,0,0,0-3.34-3.07h-.09A4.74,4.74,0,0,1,24.4,15.8Z"/><path d="M26.91,22.61a.68.68,0,0,0,.23-.51.67.67,0,0,0-.24-.51.73.73,0,0,0-1,0l-2.07,1.93a.66.66,0,0,0,0,1,.65.65,0,0,0,.47.19h0a.67.67,0,0,0,.5-.21Z"/><path d="M18.8,15.91a1,1,0,0,1,0-.19,1.1,1.1,0,0,1,0-.18h0a5.73,5.73,0,0,1,.13-.81.7.7,0,0,1,1-.41.73.73,0,0,1,.32.8,2.64,2.64,0,0,0-.05.49v.29a3,3,0,0,1,.52-.09,1.29,1.29,0,0,0,.37-.9,1.46,1.46,0,0,0-2.91,0A1.3,1.3,0,0,0,18.81,16,.13.13,0,0,1,18.8,15.91Z"/><path d="M26.09,25.77l.11-.07,1.36-1.3a.66.66,0,0,0,.23-.5.69.69,0,0,0-.24-.52.73.73,0,0,0-1,0l-1.37,1.26a.69.69,0,0,0,0,1,.69.69,0,0,0,.49.18h0a.86.86,0,0,0,.37-.1Z"/><path d="M24,3A18,18,0,1,0,42,21,18,18,0,0,0,24,3Zm8.74,21.55L28,29A1.77,1.77,0,0,1,27,29.4H26.8a2.07,2.07,0,0,1-1.12-.47l-3.46-3.24a.86.86,0,0,1,.05.23.69.69,0,0,1-.22.5l-.59.56.73.69a.69.69,0,0,1,.24.51v.61a.65.65,0,0,1-.28.55l-1.83,1.45a.57.57,0,0,1-.49.21.73.73,0,0,1-.47-.17l0,0-1.88-1.48a.66.66,0,0,1-.31-.58v-.47l-.11-.08h.11V20.4a6,6,0,0,1-2.4-4.6A4.81,4.81,0,0,1,19.6,11a4.75,4.75,0,0,1,2.77.9l.1,0a5.21,5.21,0,0,1,1.1-.07h.14a4.66,4.66,0,0,1,4.79,4.47,4.27,4.27,0,0,1-.41,1.8l4.58,4.26A1.49,1.49,0,0,1,32.74,24.55Z"/><path d="M28.31,24l-2.08,1.93a.66.66,0,0,0-.23.5.69.69,0,0,0,.24.52.68.68,0,0,0,.47.18h0a.67.67,0,0,0,.5-.21L29.31,25a.68.68,0,0,0,.23-.51A.67.67,0,0,0,29.3,24,.72.72,0,0,0,28.31,24Z"/></g></g></g></svg>