<svg xmlns="http://www.w3.org/2000/svg" viewBox="0 0 48 42"><title>park_introduction</title><g id="图层_2" data-name="图层 2"><g id="应用"><g id="park_introduction"><path d="M47,20H45A21,21,0,0,0,3,20H1a1,1,0,0,0,0,2H3a21,21,0,0,0,7.35,15,.77.77,0,0,0,.73.14.75.75,0,0,0,.49-.57.74.74,0,0,0-.24-.7A19.5,19.5,0,1,1,24,40.52a18.91,18.91,0,0,1-5.69-.85.75.75,0,0,0-.94.88.77.77,0,0,0,.51.55A21,21,0,0,0,45,22h2a1,1,0,0,0,0-2Z"/><path d="M17.37,21.85A.85.85,0,1,0,16.5,21,.86.86,0,0,0,17.37,21.85Z"/><path d="M21.4,21.85a.85.85,0,1,0-.86-.85A.86.86,0,0,0,21.4,21.85Z"/><path d="M17.08,24.9H30.92a.77.77,0,0,0,0-1.54H17.08a.77.77,0,0,0,0,1.54Z"/><path d="M26.6,21.85a.85.85,0,1,0-.87-.85A.86.86,0,0,0,26.6,21.85Z"/><path d="M30.63,21.85a.85.85,0,1,0-.86-.85A.86.86,0,0,0,30.63,21.85Z"/><path d="M17.08,27.27h6.34a.77.77,0,0,0,0-1.54H17.08a.77.77,0,0,0,0,1.54Z"/><path d="M24,3A18,18,0,1,0,42,21,18,18,0,0,0,24,3ZM34,27.55a1.91,1.91,0,0,1-1.92,1.91H15.92A1.91,1.91,0,0,1,14,27.55V18.69H34Zm0-10.4H14V15.59a1.91,1.91,0,0,1,1.92-1.91H18v-.37a.77.77,0,0,1,1.54,0v.37h8.27v-.37a.77.77,0,1,1,1.53,0v.37h2.7A1.91,1.91,0,0,1,34,15.59Z"/></g></g></g></svg>