<svg xmlns="http://www.w3.org/2000/svg" viewBox="0 0 48 42"><defs><style>.cls-1{fill-rule:evenodd;}</style></defs><title>park_canteen</title><g id="图层_2" data-name="图层 2"><g id="应用"><g id="park_canteen"><path d="M47,20H45A21,21,0,0,0,3,20H1a1,1,0,0,0,0,2H3a21,21,0,0,0,7.35,15,.77.77,0,0,0,.73.14.75.75,0,0,0,.49-.57.74.74,0,0,0-.24-.7A19.5,19.5,0,1,1,24,40.52a18.91,18.91,0,0,1-5.69-.85.75.75,0,0,0-.94.88.77.77,0,0,0,.51.55A21,21,0,0,0,45,22h2a1,1,0,0,0,0-2Z"/><path class="cls-1" d="M24,3A18,18,0,1,0,42,21,18,18,0,0,0,24,3Zm5.36,21.57v4.68a2,2,0,0,1-2,2H21.14a2,2,0,0,1-2-2V24.57a5.09,5.09,0,1,1,.42-10.17,5.07,5.07,0,0,1,9.39,0,5.09,5.09,0,1,1,.41,10.17Z"/><path class="cls-1" d="M24.25,14.63h0a1.78,1.78,0,1,1-1.78,1.77A1.78,1.78,0,0,1,24.25,14.63Z"/><path class="cls-1" d="M19.26,17.69h0a1.78,1.78,0,1,1-1.77,1.78A1.78,1.78,0,0,1,19.26,17.69Z"/><path class="cls-1" d="M29.06,17.69h0a1.78,1.78,0,1,1-1.78,1.78A1.78,1.78,0,0,1,29.06,17.69Z"/></g></g></g></svg>