<svg xmlns="http://www.w3.org/2000/svg" viewBox="0 0 48 42"><title>property_service</title><g id="图层_2" data-name="图层 2"><g id="首页"><path id="property_service" d="M19,26a1,1,0,0,1,1-1h8a1,1,0,0,1,1,1,1,1,0,0,1-1,1H20A1,1,0,0,1,19,26Zm0-3a1,1,0,0,1,1-1h8a1,1,0,0,1,1,1,1,1,0,0,1-1,1H20A1,1,0,0,1,19,23Zm0-3a1,1,0,0,1,1-1h8a1,1,0,0,1,1,1,1,1,0,0,1-1,1H20A1,1,0,0,1,19,20ZM24,3h0A18,18,0,1,1,6,21,18,18,0,0,1,24,3ZM45,21A21,21,0,0,1,17.88,41.1a.77.77,0,0,1-.51-.55.75.75,0,0,1,.94-.88,18.91,18.91,0,0,0,5.69.85,19.5,19.5,0,1,0-12.65-4.66.74.74,0,0,1,.24.7.75.75,0,0,1-.49.57.77.77,0,0,1-.73-.14A21,21,0,0,1,3,21H1a1,1,0,0,1,0-2H3.1a21,21,0,0,1,41.81,0H47a1,1,0,0,1,0,2ZM31,14a1,1,0,0,1-2,0H27.87a4,4,0,0,0-7.74,0H19a1,1,0,0,1-2,0h0a3.11,3.11,0,0,0-3,3.22V27.78A3.12,3.12,0,0,0,17,31H31a3.11,3.11,0,0,0,3-3.22V17.22A3.12,3.12,0,0,0,31,14Z"/></g></g></svg>