<svg xmlns="http://www.w3.org/2000/svg" viewBox="0 0 48 42"><title>zone_policy</title><g id="图层_2" data-name="图层 2"><g id="应用"><g id="zone_policy"><path d="M47,20H45A21,21,0,0,0,3,20H1a1,1,0,0,0,0,2H3a21,21,0,0,0,7.35,15,.77.77,0,0,0,.73.14.75.75,0,0,0,.49-.57.74.74,0,0,0-.24-.7A19.5,19.5,0,1,1,24,40.52a18.91,18.91,0,0,1-5.69-.85.75.75,0,0,0-.94.88.77.77,0,0,0,.51.55A21,21,0,0,0,45,22h2a1,1,0,0,0,0-2Z"/><path d="M30.67,26.83a.85.85,0,0,1-.84.84H19v1.66H32.33V17.67H30.67Z"/><path d="M24,3A18,18,0,1,0,42,21,18,18,0,0,0,24,3ZM34,30.17a.83.83,0,0,1-.83.83h-15a.84.84,0,0,1-.84-.83v-2.5h-2.5a.84.84,0,0,1-.83-.84V13.5a.83.83,0,0,1,.83-.83H21.5v-.84a.83.83,0,0,1,.83-.83.84.84,0,0,1,.84.83v.84h6.66a.84.84,0,0,1,.84.83V16h2.5a.83.83,0,0,1,.83.83Z"/><path d="M22.33,16H18.17a.84.84,0,0,0-.84.83.85.85,0,0,0,.84.84h4.16a.85.85,0,0,0,.84-.84A.84.84,0,0,0,22.33,16Z"/><path d="M23.17,22.67h-5a.83.83,0,1,0,0,1.66h5a.83.83,0,0,0,0-1.66Z"/><path d="M20.67,19.33h-2.5a.85.85,0,0,0-.84.84.84.84,0,0,0,.84.83h2.5a.83.83,0,0,0,.83-.83A.84.84,0,0,0,20.67,19.33Z"/><path d="M26.5,16H24.83a.83.83,0,0,0-.83.83.84.84,0,0,0,.83.84H26.5a.84.84,0,0,0,.83-.84A.83.83,0,0,0,26.5,16Z"/><path d="M26.5,22.67h-.83a.83.83,0,1,0,0,1.66h.83a.83.83,0,0,0,0-1.66Z"/><path d="M26.5,19.33H23.17a.85.85,0,0,0-.84.84.84.84,0,0,0,.84.83H26.5a.83.83,0,0,0,.83-.83A.84.84,0,0,0,26.5,19.33Z"/></g></g></g></svg>