<svg xmlns="http://www.w3.org/2000/svg" viewBox="0 0 48 42"><title>batchly_charge</title><g id="图层_2" data-name="图层 2"><g id="应用"><g id="batchly_charge"><path d="M42,21A18,18,0,1,0,24,39,18,18,0,0,0,42,21Zm-8,5.86a1.91,1.91,0,0,1-1.86,1.83h-2V25.62H34Zm0-2.63H25.92a2.08,2.08,0,0,1,0-4.15H34ZM15.75,28.68A2,2,0,0,1,14,26.92V15a1.77,1.77,0,0,1,1.85-1.69H29.38a.77.77,0,1,1,0,1.54H15.85c-.2,0-.31.09-.31.15v.65a1.65,1.65,0,0,1,.32,0H32.14A1.88,1.88,0,0,1,34,17.51v1.18H30.15V15.62H28.62v3.07h-2.7a3.47,3.47,0,0,0,0,6.93h2.7v3.07H15.75Z"/><path d="M47,20H45A21,21,0,0,0,3,20H1a1,1,0,0,0,0,2H3a21,21,0,0,0,7.35,15,.77.77,0,0,0,.73.14.75.75,0,0,0,.49-.57.74.74,0,0,0-.24-.7A19.5,19.5,0,1,1,24,40.52a18.91,18.91,0,0,1-5.69-.85.75.75,0,0,0-.94.88.77.77,0,0,0,.51.55A21,21,0,0,0,45,22h2a1,1,0,0,0,0-2Z"/><circle cx="27" cy="22" r="1"/></g></g></g></svg>