<svg xmlns="http://www.w3.org/2000/svg" viewBox="0 0 25 25"><title>completed_acceptance_check</title><g id="图层_2" data-name="图层 2"><g id="应用"><g id="completed_acceptance_check"><path d="M6.75,21.16A10.46,10.46,0,1,1,22.56,9.45a10.4,10.4,0,0,1-4.31,11.71,1,1,0,0,0,1.09,1.68A12.46,12.46,0,1,0,.52,8.88a12.4,12.4,0,0,0,5.14,14,1,1,0,0,0,1.09-1.68Z"/><path d="M13,24.31a19.31,19.31,0,0,0,.66-2.62A24.87,24.87,0,0,0,14,16.52a20.13,20.13,0,0,0-.31-3.69A1,1,0,0,0,12.53,12a1,1,0,0,0-.82,1.16A18.11,18.11,0,0,1,12,16.54a22.5,22.5,0,0,1-.35,4.8,17.19,17.19,0,0,1-.59,2.35,1,1,0,1,0,1.9.62Z"/><path d="M15.69,9.17a3.88,3.88,0,0,0-.49-.4,4.86,4.86,0,0,0-3.74-.64l-.13,0a4.2,4.2,0,0,0-2.9,3.18c-.19,1-.12,1.64.27,4,.54,3.22.49,5-.6,7.22a1,1,0,1,0,1.8.88c1.31-2.65,1.38-4.83.77-8.43s-.47-4.24,1.39-5l-.13.05a2.81,2.81,0,0,1,2.17.36,2.31,2.31,0,0,1,.21.18,1,1,0,0,0,1.38-1.45Z"/><path d="M16.31,23.84c1-4.63,1.39-8.49.68-11.45a1,1,0,0,0-1.2-.74,1,1,0,0,0-.74,1.21c.61,2.56.24,6.23-.69,10.56a1,1,0,1,0,1.95.42Z"/><path d="M5.48,15.48a5.08,5.08,0,0,1,.63,3.75,15.4,15.4,0,0,1-.71,2.46,1,1,0,0,0,1.91.62,18.38,18.38,0,0,0,.77-2.7,7.09,7.09,0,0,0-.85-5.09,1,1,0,1,0-1.75,1Z"/><path d="M20.64,17.21C22.2,10,18.33,5.08,12.85,5c-4.16-.06-8,3.4-7.85,7.27a1,1,0,0,0,2-.07C6.91,9.53,9.76,7,12.82,7c4.22.06,7.16,3.81,5.86,9.79a1,1,0,1,0,2,.42Z"/></g></g></g></svg>