<svg xmlns="http://www.w3.org/2000/svg" viewBox="0 0 48 42"><title>guest_visit</title><g id="图层_2" data-name="图层 2"><g id="应用"><g id="guest_visit"><g id="背景"><path d="M47,20H45A21,21,0,0,0,3,20H1a1,1,0,0,0,0,2H3a21,21,0,0,0,7.35,15,.77.77,0,0,0,.73.14.75.75,0,0,0,.49-.57.74.74,0,0,0-.24-.7A19.5,19.5,0,1,1,24,40.52a18.91,18.91,0,0,1-5.69-.85.75.75,0,0,0-.94.88.77.77,0,0,0,.51.55A21,21,0,0,0,45,22h2a1,1,0,0,0,0-2Z"/><path d="M31.49,22.15c0,.11,0,.22,0,.34a.17.17,0,0,1,0,.07,4,4,0,0,0,.62-1.36,8.07,8.07,0,0,0,.25-1.86h-.85Z"/><path d="M24,3A18,18,0,1,0,42,21,18,18,0,0,0,24,3Zm2.33,9.44a.83.83,0,0,1,1.17-1.19,1.84,1.84,0,0,1,0,2.85c-.21.2-.21.24,0,.47a.83.83,0,1,1-1.18,1.17,1.85,1.85,0,0,1,0-2.85C26.55,12.7,26.55,12.65,26.33,12.44Zm-4.16,0a.85.85,0,0,1,0-1.18.84.84,0,0,1,1.18,0,1.85,1.85,0,0,1,0,2.85c-.22.2-.22.24,0,.47a.83.83,0,1,1-1.18,1.17,1.85,1.85,0,0,1,0-2.85C22.39,12.7,22.39,12.65,22.17,12.44Zm-4.16,0a.82.82,0,0,1,0-1.17.84.84,0,0,1,1.18,0,1.85,1.85,0,0,1,0,2.86c-.21.2-.21.23,0,.47A.83.83,0,1,1,18,15.76a1.85,1.85,0,0,1,0-2.85C18.23,12.71,18.23,12.67,18,12.45ZM16.09,31a2.08,2.08,0,0,1,0-4.16A6.33,6.33,0,0,1,14,22.15V17.67a.84.84,0,0,1,.84-.83H30.66a.83.83,0,0,1,.83.83h1.67a.84.84,0,0,1,.83.76s0,.1,0,.19a10.33,10.33,0,0,1-.3,3A4.36,4.36,0,0,1,30.83,25a6.4,6.4,0,0,1-1.41,1.86,2.08,2.08,0,0,1,0,4.16ZM36,32a1,1,0,0,1-1,1H31a1,1,0,0,1-1-1c0-.55,4.45-5,5-5a1,1,0,0,1,1,1Z"/></g><path d="M25.83,16.84v2l-1.42,1.42a.83.83,0,0,0-.24.59v2.49a.83.83,0,0,0,.83.83h3.33a.83.83,0,0,0,.83-.83V20.84a.79.79,0,0,0-.24-.59L27.5,18.83v-2Zm.84,3.87.83,1.12v.83H25.83v-.83Z"/><path d="M20.36,24.33a2.19,2.19,0,0,1-2.19-2.18.83.83,0,1,0-1.66,0A3.84,3.84,0,0,0,20.36,26a.83.83,0,0,0,0-1.66Z"/></g></g></g></svg>