<svg xmlns="http://www.w3.org/2000/svg" viewBox="0 0 24 24"><title>hide_acceptance_check</title><g id="图层_2" data-name="图层 2"><g id="应用"><g id="hide_acceptance_check"><path d="M8.33,22H2.47A.47.47,0,0,1,2,21.53V17.87a1,1,0,0,0-2,0v3.66A2.46,2.46,0,0,0,2.47,24H8.33a1,1,0,0,0,0-2Z"/><path d="M22,17.87v3.66a.47.47,0,0,1-.47.47H15.67a1,1,0,0,0,0,2h5.86A2.46,2.46,0,0,0,24,21.53V17.87a1,1,0,0,0-2,0Z"/><path d="M15.67,2h5.86a.47.47,0,0,1,.47.47V6.13a1,1,0,0,0,2,0V2.47A2.46,2.46,0,0,0,21.53,0H15.67a1,1,0,0,0,0,2Z"/><path d="M2,6.13V2.47A.47.47,0,0,1,2.47,2H8.33a1,1,0,0,0,0-2H2.47A2.46,2.46,0,0,0,0,2.47V6.13a1,1,0,0,0,2,0Z"/><path d="M12,16.36c-3.62,0-6.52-2.88-7.78-4.36C5.48,10.53,8.41,7.64,12,7.64s6.49,2.87,7.76,4.36C18.47,13.48,15.51,16.36,12,16.36ZM12,6C6,6,2,12,2,12s4.05,6,10,6,10-6,10-6S17.89,6,12,6Z"/><path class="cls-1" d="M12,14.18h0a2.51,2.51,0,0,0,2.1-1.08,2,2,0,0,0,0-2.17l-3.31,3A2.54,2.54,0,0,0,12,14.18Zm0-4.36h0a2.48,2.48,0,0,0-2,1,2,2,0,0,0-.18,2.08L13,10A2.57,2.57,0,0,0,12,9.82Zm0-1.37h0A3.76,3.76,0,0,1,15.94,12,3.76,3.76,0,0,1,12,15.55,3.76,3.76,0,0,1,8.06,12,3.76,3.76,0,0,1,12,8.45Z"/></g></g></g></svg>