<svg xmlns="http://www.w3.org/2000/svg" viewBox="0 0 48 42"><title>intelligent_life</title><g id="图层_2" data-name="图层 2"><g id="首页"><path id="intelligent_life" d="M27.91,21.58h0l-3,1.76V16.22Zm-7.82,0h0l3-5.36v7.12ZM35.8,32.75a1,1,0,0,0,.3-.7v-4a1,1,0,0,0-1-1c-.56,0-5,4.45-5,5a1,1,0,0,0,1,1h4A1,1,0,0,0,35.8,32.75ZM24.89,29.41h0l4.59-6.51H32.4c.38,0,.7-.42.7-.95s-.32-.95-.7-.95H29.5l-4.77-8.62a.84.84,0,0,0-1.46,0L18.5,21H15.78a1,1,0,0,0,0,1.9h2.74l4.59,6.51a1.05,1.05,0,0,0,.2.27h0a.82.82,0,0,0,1.36,0h0A1.05,1.05,0,0,0,24.89,29.41ZM24,3h0A18,18,0,1,1,6,21,18,18,0,0,1,24,3ZM45,22a21,21,0,0,1-27.1,19.1.77.77,0,0,1-.51-.55.75.75,0,0,1,.94-.88,18.91,18.91,0,0,0,5.69.85,19.5,19.5,0,1,0-12.65-4.66.74.74,0,0,1,.24.7.75.75,0,0,1-.49.57.77.77,0,0,1-.73-.14A21,21,0,0,1,3,22H1a1,1,0,0,1,0-2H3a21,21,0,0,1,42,0h2a1,1,0,0,1,0,2H45Z"/></g></g></svg>