<svg xmlns="http://www.w3.org/2000/svg" viewBox="0 0 48 42"><title>meter</title><g id="图层_2" data-name="图层 2"><g id="应用"><g id="meter"><path d="M47,20H45A21,21,0,0,0,3,20H1a1,1,0,0,0,0,2H3a21,21,0,0,0,7.35,15,.77.77,0,0,0,.73.14.75.75,0,0,0,.49-.57.74.74,0,0,0-.24-.7A19.5,19.5,0,1,1,24,40.52a18.91,18.91,0,0,1-5.69-.85.75.75,0,0,0-.94.88.77.77,0,0,0,.51.55A21,21,0,0,0,45,22h2a1,1,0,0,0,0-2Z"/><path d="M27.87,15.41a11.77,11.77,0,0,0-.8,1.06,1.72,1.72,0,0,0-.32,1,1,1,0,0,0,.08.44,1.21,1.21,0,0,0,.24.35,1.08,1.08,0,0,0,.37.26,1.32,1.32,0,0,0,.44.08,1.44,1.44,0,0,0,.46-.08.85.85,0,0,0,.33-.24.91.91,0,0,0,.24-.37h0a1,1,0,0,0,.1-.44,2,2,0,0,0-.32-1A7.78,7.78,0,0,0,27.87,15.41Z"/><path d="M27.81,12.26a4.53,4.53,0,1,0,4.53,4.53A4.53,4.53,0,0,0,27.81,12.26Zm2.14,6a2.09,2.09,0,0,1-.49.72,2,2,0,0,1-.7.47,2.09,2.09,0,0,1-1.73,0,2.34,2.34,0,0,1-1.16-1.16,2.14,2.14,0,0,1-.18-.86,2.94,2.94,0,0,1,.48-1.53,9.22,9.22,0,0,1,.9-1.16l.21-.25.19-.23a.24.24,0,0,1,.09-.08A.53.53,0,0,1,28,14a.57.57,0,0,1,.38.2,3.16,3.16,0,0,0,.37.45h0a10.27,10.27,0,0,1,.93,1.16,3,3,0,0,1,.48,1.53A2,2,0,0,1,30,18.24Z"/><path d="M26.16,25.44H17.32a.78.78,0,1,0,0,1.56h8.84a.78.78,0,0,0,0-1.56Z"/><path d="M17.32,24.56h4.42a.78.78,0,0,0,0-1.56H17.32a.78.78,0,1,0,0,1.56Z"/><path d="M24,3A18,18,0,1,0,42,21,18,18,0,0,0,24,3Zm9.34,24.51-.7,2.54a.41.41,0,0,1-.2.28.41.41,0,0,1-.34,0,.45.45,0,0,1-.28-.2.48.48,0,0,1-.05-.35l.53-2H31a.41.41,0,0,1-.28-.2.45.45,0,0,1,0-.34l.75-2.87,0,0a.46.46,0,0,1,.54-.27.47.47,0,0,1,.34.5l-.6,2.24h1.15a.46.46,0,0,1,.46.45A.38.38,0,0,1,33.34,27.51ZM29.7,22.44v6.22a1.89,1.89,0,0,1-1.89,1.89H15.66a1.89,1.89,0,0,1-1.88-1.89V16.37h0a1.88,1.88,0,0,1,1.87-1.75h6.6a6,6,0,1,1,7.44,7.82Z"/></g></g></g></svg>