<svg xmlns="http://www.w3.org/2000/svg" viewBox="0 0 48 42"><title>notice_news</title><g id="图层_2" data-name="图层 2"><g id="应用"><g id="notice_news"><path d="M47,20H45A21,21,0,0,0,3,20H1a1,1,0,0,0,0,2H3a21,21,0,0,0,7.35,15,.77.77,0,0,0,.73.14.75.75,0,0,0,.49-.57.74.74,0,0,0-.24-.7A19.5,19.5,0,1,1,24,40.52a18.91,18.91,0,0,1-5.69-.85.75.75,0,0,0-.94.88.77.77,0,0,0,.51.55A21,21,0,0,0,45,22h2a1,1,0,0,0,0-2Z"/><path d="M17.52,16.87a.84.84,0,0,1,.64-1l.38-.08-1.3-.17L15.76,27.2l4.09.53-2-9.34Z"/><polygon points="28.16 28.81 28.24 28.2 26.44 28.59 28.16 28.81"/><path d="M24,3A18,18,0,1,0,42,21,18,18,0,0,0,24,3Zm9.34,24.11L30,27.83l-.27,2a.83.83,0,0,1-.93.72l-7.21-.94-.43.09a.82.82,0,0,1-.77-.24l-5.63-.74a.83.83,0,0,1-.72-.93L15.7,14.6a.83.83,0,0,1,.93-.72l6.79.88.69-.15a2.61,2.61,0,0,1-.1-.69,2.5,2.5,0,0,1,2.5-2.5h.11l.9-1.94a1,1,0,1,1,1.81.84l-.92,2A2.55,2.55,0,0,1,29,13.57l1.41-.3a.82.82,0,0,1,1,.64L34,26.12A.83.83,0,0,1,33.34,27.11Z"/><path d="M22,21.89l2.44-.52a.83.83,0,0,0,.63-1,.82.82,0,0,0-1-.63l-2.43.52A.83.83,0,1,0,22,21.89Z"/><path d="M27.68,20.67l1.62-.34A.83.83,0,1,0,29,18.7l-1.62.35a.83.83,0,0,0,.35,1.62Z"/><path d="M29.48,21.14,27,21.66a.83.83,0,0,0,.35,1.62l2.43-.52a.83.83,0,1,0-.34-1.62Z"/><path d="M23.8,22.35l-1.62.35a.83.83,0,1,0,.34,1.62L24.15,24a.83.83,0,0,0-.35-1.62Z"/><path d="M30,23.57l-.81.17a.83.83,0,0,0,.34,1.63l.81-.18A.83.83,0,0,0,30,23.57Z"/><path d="M25.94,24.44l-3.24.69a.83.83,0,0,0,.35,1.63l3.24-.7a.83.83,0,1,0-.35-1.62Z"/><path d="M25.91,17.42l1.42-3.09a1,1,0,1,0-1.81-.84l-1.43,3.09a1,1,0,0,0,1.82.84Z"/></g></g></g></svg>