<svg xmlns="http://www.w3.org/2000/svg" viewBox="0 0 48 42"><defs><style>.cls-1{fill-rule:evenodd;}</style></defs><title>park_service</title><g id="图层_2" data-name="图层 2"><g id="首页"><g id="park_service"><path class="cls-1" d="M45,22a21,21,0,0,1-27.1,19.1.77.77,0,0,1-.51-.55.75.75,0,0,1,.94-.88,18.91,18.91,0,0,0,5.69.85,19.5,19.5,0,1,0-12.65-4.66.74.74,0,0,1,.24.7.75.75,0,0,1-.49.57.77.77,0,0,1-.73-.14A21,21,0,0,1,3,22H1a1,1,0,0,1,0-2H3a21,21,0,0,1,42,0h2a1,1,0,0,1,0,2H45Z"/><circle cx="24" cy="21" r="2"/><path class="cls-1" d="M24,13a8,8,0,0,0-7.41,5H20a5,5,0,0,1,8,0h3.43A8,8,0,0,0,24,13Z"/><path class="cls-1" d="M21,28.41V25c0-.28-.7-.61-1-1H16.59A8,8,0,0,0,21,28.41Z"/><path class="cls-1" d="M27,28.41A8,8,0,0,0,31.41,24H28a2,2,0,0,1-1,1Z"/><path class="cls-1" d="M24,3A18,18,0,1,0,42,21,18,18,0,0,0,24,3Zm0,28A10,10,0,1,1,34,21,10,10,0,0,1,24,31Z"/></g></g></g></svg>