<svg xmlns="http://www.w3.org/2000/svg" viewBox="0 0 48 42"><title>property_repair</title><g id="图层_2" data-name="图层 2"><g id="应用"><g id="property_repair"><path d="M47,20H45A21,21,0,0,0,3,20H1a1,1,0,0,0,0,2H3a21,21,0,0,0,7.35,15,.77.77,0,0,0,.73.14.75.75,0,0,0,.49-.57.74.74,0,0,0-.24-.7A19.5,19.5,0,1,1,24,40.52a18.91,18.91,0,0,1-5.69-.85.75.75,0,0,0-.94.88.77.77,0,0,0,.51.55A21,21,0,0,0,45,22h2a1,1,0,0,0,0-2Z"/><rect x="25.49" y="15.76" width="4.16" height="3.33" transform="translate(-4.25 24.6) rotate(-45)"/><path d="M24,3A18,18,0,1,0,42,21,18,18,0,0,0,24,3Zm9.76,15.31h0a.81.81,0,0,1,.12.18.47.47,0,0,1,.06.09.72.72,0,0,1,.06.29v0a.82.82,0,0,1-.24.59l-4.12,4.13a.85.85,0,0,1-1.18,0,.83.83,0,0,1,0-1.18L32,18.9l-.59-.59-3.53,3.53a.83.83,0,0,1-1.18,0h0l-8.42,8.42a2.5,2.5,0,0,1-3.54-3.53l8.43-8.42h0a.83.83,0,0,1,0-1.18L27.28,13h0l1.77-1.77a.82.82,0,0,1,1.17,0l3.54,3.53a.85.85,0,0,1,0,1.18l-1.18,1.18Z"/></g></g></g></svg>