<svg xmlns="http://www.w3.org/2000/svg" viewBox="0 0 48 42"><title>reserve_visit</title><g id="图层_2" data-name="图层 2"><g id="应用"><g id="reserve_visit"><path d="M47,20H45A21,21,0,0,0,3,20H1a1,1,0,0,0,0,2H3a21,21,0,0,0,7.35,15,.77.77,0,0,0,.73.14.75.75,0,0,0,.49-.57.74.74,0,0,0-.24-.7A19.5,19.5,0,1,1,24,40.52a18.91,18.91,0,0,1-5.69-.85.75.75,0,0,0-.94.88.77.77,0,0,0,.51.55A21,21,0,0,0,45,22h2a1,1,0,0,0,0-2Z"/><path d="M24,3A18,18,0,1,0,42,21,18,18,0,0,0,24,3Zm3.87,14.61a4.12,4.12,0,1,1-7.76,0A9.78,9.78,0,0,1,27.87,17.61ZM15,14.22a2.05,2.05,0,0,1,2.06-2.05h2.88a.83.83,0,1,1,0,1.66H17.06a.39.39,0,0,0-.39.39v2.06a.84.84,0,0,1-.84.83.83.83,0,0,1-.83-.83Zm4.94,16H17.06A2.06,2.06,0,0,1,15,28.11V26.06a.84.84,0,0,1,.83-.84.85.85,0,0,1,.84.84v2.05a.38.38,0,0,0,.39.39h2.88a.84.84,0,0,1,.84.83A.85.85,0,0,1,19.94,30.17Zm-4.1-9a10,10,0,0,1,2.53-2.58,5.64,5.64,0,1,0,11.24,0,9.52,9.52,0,0,1,2.54,2.6,9.81,9.81,0,0,1-16.31,0Zm17.16,7a2.06,2.06,0,0,1-2.06,2.06H28.06a.85.85,0,0,1-.84-.84.84.84,0,0,1,.84-.83h2.88a.38.38,0,0,0,.39-.39V26.06a.85.85,0,0,1,.84-.84.84.84,0,0,1,.83.84Zm0-11.83a.83.83,0,0,1-.83.83.84.84,0,0,1-.84-.83V14.22a.39.39,0,0,0-.39-.39H28.06a.83.83,0,1,1,0-1.66h2.88A2.05,2.05,0,0,1,33,14.22Z"/><circle cx="21.35" cy="18.6" r="1.1"/></g></g></g></svg>