<svg xmlns="http://www.w3.org/2000/svg" viewBox="0 0 24 24"><title>settle_in</title><g id="图层_2" data-name="图层 2"><g id="应用"><g id="settle_in"><path d="M12,.65l0-.1A1.4,1.4,0,0,0,11.64,0,1.56,1.56,0,0,1,12,.65Zm-1.26,0A1.69,1.69,0,0,1,11.09,0a1.53,1.53,0,0,0-.31.55Z"/><path d="M21.47,9.22v5.72a1.09,1.09,0,0,1-2.18,0h0V7.43ZM4.07,22.89A1.1,1.1,0,0,1,3,24a1.08,1.08,0,0,1-.77-.32,1.15,1.15,0,0,1-.32-.79V10.35L4.06,8.58Z"/><path d="M23.75,10.64a1.09,1.09,0,0,1-.82.39,1,1,0,0,1-.69-.26L12,2.41l.68-.58c.45-.39.7-1,.32-1.43a1.05,1.05,0,0,0-.82-.4L12,0l.2,0a1,1,0,0,1,.69.26L23.62,9.09A1.12,1.12,0,0,1,23.75,10.64Z"/><path d="M.39,9.1A1.09,1.09,0,1,0,1.8,10.77L12.87,1.93A1.09,1.09,0,0,0,13,.39,1.11,1.11,0,0,0,11.46.26Z"/><path d="M14,23a1,1,0,0,1-1,1H2.88a1,1,0,0,1,0-2H13A1,1,0,0,1,14,23Z"/><path class="cls-1" d="M21.87,20.91A1.09,1.09,0,0,1,20.79,22H17.07a1.09,1.09,0,0,1,0-2.18h3.72A1.09,1.09,0,0,1,21.87,20.91Z"/><path class="cls-1" d="M18.93,23.85a1.08,1.08,0,0,1-1.08-1.08V19.05a1.09,1.09,0,0,1,2.17,0v3.72A1.09,1.09,0,0,1,18.93,23.85Z"/><path class="cls-1" d="M16.42,10.09a1.08,1.08,0,0,1-1.07,1.09H8.42A1.09,1.09,0,0,1,8.42,9h6.93A1.08,1.08,0,0,1,16.42,10.09Z"/><path class="cls-1" d="M16.42,14.09a1.08,1.08,0,0,1-1.07,1.09H8.42a1.09,1.09,0,0,1,0-2.18h6.93A1.08,1.08,0,0,1,16.42,14.09Z"/><path class="cls-1" d="M12.42,18.09a1.08,1.08,0,0,1-1.07,1.09H8.42a1.09,1.09,0,0,1,0-2.18h2.93A1.08,1.08,0,0,1,12.42,18.09Z"/></g></g></g></svg>