<svg xmlns="http://www.w3.org/2000/svg" viewBox="0 0 24 24"><title>settle_out</title><g id="图层_2" data-name="图层 2"><g id="应用"><g id="settle_out"><path d="M12,.65l0-.1A1.4,1.4,0,0,0,11.64,0,1.56,1.56,0,0,1,12,.65Zm-1.26,0A1.69,1.69,0,0,1,11.09,0a1.53,1.53,0,0,0-.31.55Z"/><path d="M21.47,9.22V23H19.29V7.43ZM4.07,22.89A1.1,1.1,0,0,1,3,24a1.08,1.08,0,0,1-.77-.32,1.15,1.15,0,0,1-.32-.79V10.35L4.06,8.58Z"/><path d="M23.75,10.64a1.09,1.09,0,0,1-.82.39,1,1,0,0,1-.69-.26L12,2.41l.68-.58c.45-.39.7-1,.32-1.43a1.05,1.05,0,0,0-.82-.4L12,0l.2,0a1,1,0,0,1,.69.26L23.62,9.09A1.12,1.12,0,0,1,23.75,10.64Z"/><path d="M.39,9.1A1.09,1.09,0,1,0,1.8,10.77L12.87,1.93A1.09,1.09,0,0,0,13,.39,1.11,1.11,0,0,0,11.46.26Z"/><path d="M21.47,23a1.12,1.12,0,0,1-1.2,1h-13a1,1,0,1,1,0-2H20.27A1.12,1.12,0,0,1,21.47,23ZM10.66,19.11a1.09,1.09,0,0,1,0,1.53l-2.82,3a1.09,1.09,0,0,1-1.54-1.54l2.82-3A1.09,1.09,0,0,1,10.66,19.11Z"/><path class="cls-1" d="M16.42,18.55a1.07,1.07,0,0,1-1.07,1.08h-.72a1.09,1.09,0,0,1,0-2.17h.72A1.08,1.08,0,0,1,16.42,18.55Z"/><path class="cls-1" d="M16.42,10.09a1.08,1.08,0,0,1-1.07,1.09H8.42A1.09,1.09,0,0,1,8.42,9h6.93A1.08,1.08,0,0,1,16.42,10.09Z"/><path class="cls-1" d="M16.42,14.09a1.08,1.08,0,0,1-1.07,1.09H8.42a1.09,1.09,0,0,1,0-2.18h6.93A1.08,1.08,0,0,1,16.42,14.09Z"/></g></g></g></svg>