<svg xmlns="http://www.w3.org/2000/svg" viewBox="0 0 48 42"><defs><style>.cls-1{fill-rule:evenodd;}</style></defs><title>shared_office</title><g id="图层_2" data-name="图层 2"><g id="应用"><g id="shared_office"><path d="M47,20H45A21,21,0,0,0,3,20H1a1,1,0,0,0,0,2H3a21,21,0,0,0,7.35,15,.77.77,0,0,0,.73.14.75.75,0,0,0,.49-.57.74.74,0,0,0-.24-.7A19.5,19.5,0,1,1,24,40.52a18.91,18.91,0,0,1-5.69-.85.75.75,0,0,0-.94.88.77.77,0,0,0,.51.55A21,21,0,0,0,45,22h2a1,1,0,0,0,0-2Z"/><path class="cls-1" d="M27.31,11.82H20.69a1.58,1.58,0,0,0-1.56,1.49h9.74A1.58,1.58,0,0,0,27.31,11.82Z"/><path class="cls-1" d="M24,3A18,18,0,1,0,42,21,18,18,0,0,0,24,3Zm6.61,27H17.39A3.38,3.38,0,0,1,14,26.75H34A3.38,3.38,0,0,1,30.61,30ZM34,25.25H14V19.33L19,22a.89.89,0,0,0,.88.76,1,1,0,0,0,.36-.07l3.33,1.83a.92.92,0,0,0,.88,0l3.33-1.83a1,1,0,0,0,.36.07A.89.89,0,0,0,29,22l5-2.65Zm0-8-5,2.63v-.53a.91.91,0,0,0-1.82,0v1.53L24,22.67l-3.22-1.78V19.36a.91.91,0,0,0-1.82,0v.53l-5-2.63v-.57a3.39,3.39,0,0,1,3.31-3.38A3.39,3.39,0,0,1,20.69,10h6.62a3.39,3.39,0,0,1,3.38,3.31A3.39,3.39,0,0,1,34,16.69Z"/></g></g></g></svg>