<svg xmlns="http://www.w3.org/2000/svg" viewBox="0 0 24.77 25.02"><title>venue_booking</title><g id="图层_2" data-name="图层 2"><g id="应用"><g id="venue_booking"><path d="M5.48,11.25a3.07,3.07,0,0,0-1.27.28l-2.07,1.8a.15.15,0,0,0-.06.13.16.16,0,0,0,.06.13l2.07,1.85a1.12,1.12,0,0,0,.74.28h7.48v6.9a.32.32,0,0,0,.32.32h1.37a.32.32,0,0,0,.32-.32v-6.9H17.6a.24.24,0,0,0,.24-.24v-4a.24.24,0,0,0-.24-.24H14.44v-3h5.4A1.15,1.15,0,0,0,20.57,8l2.06-1.8A.16.16,0,0,0,22.69,6a.18.18,0,0,0-.06-.14L20.56,4.06a1.1,1.1,0,0,0-.74-.28H14.44V2.4a.32.32,0,0,0-.32-.32H12.75a.32.32,0,0,0-.32.32V3.78H7.17A.24.24,0,0,0,6.93,4V8a.24.24,0,0,0,.24.24h5.26v3Zm11,11.37a2.41,2.41,0,0,1-2.4,2.4H12.75a2.41,2.41,0,0,1-2.4-2.4V17.8H5A3.19,3.19,0,0,1,2.83,17L.76,15.14a2.25,2.25,0,0,1,0-3.38L2.84,10a3.15,3.15,0,0,1,2.09-.78h.25A2.3,2.3,0,0,1,4.86,8V4A2.32,2.32,0,0,1,7.17,1.7h3.28A2.41,2.41,0,0,1,12.75,0h1.37a2.42,2.42,0,0,1,2.3,1.7h3.4a3.17,3.17,0,0,1,2.12.81L24,4.35a2.27,2.27,0,0,1,0,3.39l-2.07,1.8a3.2,3.2,0,0,1-2.09.78H19.6a2.36,2.36,0,0,1,.32,1.17v4A2.32,2.32,0,0,1,17.6,17.8H16.52Z"/><path class="cls-1" d="M9.39,4.9h9a1,1,0,0,1,0,2h-9a1,1,0,0,1,0-2Z"/><path class="cls-1" d="M7.39,12.4h8a1,1,0,0,1,0,2h-8a1,1,0,1,1,0-2Z"/></g></g></g></svg>