<svg xmlns="http://www.w3.org/2000/svg" viewBox="0 0 48 42"><title>vr_map</title><g id="图层_2" data-name="图层 2"><g id="应用"><g id="vr_map"><path d="M47,20H45A21,21,0,0,0,3,20H1a1,1,0,0,0,0,2H3a21,21,0,0,0,7.35,15,.77.77,0,0,0,.73.14.75.75,0,0,0,.49-.57.74.74,0,0,0-.24-.7A19.5,19.5,0,1,1,24,40.52a18.91,18.91,0,0,1-5.69-.85.75.75,0,0,0-.94.88.77.77,0,0,0,.51.55A21,21,0,0,0,45,22h2a1,1,0,0,0,0-2Z"/><path d="M24,3A18,18,0,1,0,42,21,18,18,0,0,0,24,3ZM34,27.42a1,1,0,0,1,0,.3,1,1,0,0,1-.49.6L27.8,31.21a1,1,0,0,1-1.07.09l-6.17-3.23-5.09,2.74a1,1,0,0,1-1.35-.42.61.61,0,0,1,0-.12.92.92,0,0,1-.07-.36V19.79a.84.84,0,0,1,.83-.87l4.51-.62a7.93,7.93,0,0,1-.49-2.56,5.15,5.15,0,1,1,10.3,0A6.61,6.61,0,0,1,29,17l4-.54a1,1,0,0,1,1,1Z"/><path d="M24,12.25a3.49,3.49,0,0,0-3.33,3.64c0,2,1.38,4.32,2.36,5.74a1.07,1.07,0,0,0,1.94,0c1-1.42,2.36-3.76,2.36-5.74A3.49,3.49,0,0,0,24,12.25Zm0,6a2,2,0,1,1,2-2A2,2,0,0,1,24,18.25Z"/></g></g></g></svg>