<svg xmlns="http://www.w3.org/2000/svg" viewBox="0 0 31.99 24"><title>batchly_visitors</title><g id="图层_2" data-name="图层 2"><g id="应用"><g id="batchly_visitors"><path class="cls-1" d="M18.41,21.54h-1.2v1.2A1.19,1.19,0,0,1,16,23.94a1.12,1.12,0,0,1-1.19-1.19v-1.2H13.6a1.2,1.2,0,0,1,0-2.4h1.21V17.94a1.2,1.2,0,0,1,2.4,0v1.21h1.2a1.2,1.2,0,0,1,1.2,1.21A1.18,1.18,0,0,1,18.41,21.54Z"/><path d="M24.85,13.85a2.3,2.3,0,1,0-2.3-2.3A2.3,2.3,0,0,0,24.85,13.85ZM32,19.43a1.8,1.8,0,0,1-1.78,2.15H29a1.12,1.12,0,0,1,0-2.24h.29a.24.24,0,0,0,.24-.32,4.8,4.8,0,0,0-4.63-2.92,9.17,9.17,0,0,1-2.7-.32c-.64-.23-.87-.7-.58-1.07a4.55,4.55,0,1,1,6.63-.1A7,7,0,0,1,32,19.43Z"/><path d="M9.84,15.78a9.17,9.17,0,0,1-2.7.32A4.8,4.8,0,0,0,2.51,19a.24.24,0,0,0,.23.32H3a1.12,1.12,0,0,1,0,2.24H1.82A1.8,1.8,0,0,1,0,19.43a6.93,6.93,0,0,1,3.74-4.82,4.55,4.55,0,1,1,7.91-3.06,4.57,4.57,0,0,1-1.27,3.16C10.71,15.08,10.48,15.55,9.84,15.78Zm-5-4.23a2.3,2.3,0,1,0,2.29-2.3A2.3,2.3,0,0,0,4.85,11.55Z"/><path class="cls-1" d="M23.35,24a1.2,1.2,0,1,1,0-2.4h.53A1.2,1.2,0,0,0,25,20a9.42,9.42,0,0,0-9-5.59A9.42,9.42,0,0,0,7,20,1.2,1.2,0,0,0,8.12,21.6h.53a1.2,1.2,0,1,1,0,2.4H6.47a2.4,2.4,0,0,1-2.42-2.84,11.42,11.42,0,0,1,7.35-8.35A7.11,7.11,0,0,1,8.65,7.2,7.36,7.36,0,0,1,23.26,6.08a7.1,7.1,0,0,1-2.66,6.73A11.42,11.42,0,0,1,28,21.16,2.4,2.4,0,0,1,25.53,24ZM15.88,2.51a4.67,4.67,0,1,0,4.67,4.67A4.68,4.68,0,0,0,15.88,2.51Z"/></g></g></g></svg>