<svg xmlns="http://www.w3.org/2000/svg" viewBox="0 0 12.4 12.4"><title>consumer_QRCode</title><g id="图层_2" data-name="图层 2"><g id="首页"><g id="consumer_QRCode"><path d="M5,9.76h.42V9.34H5Zm1.27-1v.42h.42V8.71Zm1.27.42H8V8.71H7.58Zm0,.85H7.15v.42H8V9.55H7.58Zm-.85-.85V10h.42V9.13ZM6.31,10.4h.42V10H6.31Zm1.05-3H6.94v.42h.42V7.44ZM4.82,9.13h.85V10H4.82ZM4.4,10.4H6.09V8.71H4.4ZM5,7.86h.42V7.44H5Zm2.54.21H6.73V7.22h.85ZM6.31,6.8V8.49H8V6.8Zm-1.49.42h.85v.85H4.82ZM4.4,8.49H6.09V6.8H4.4Z"/><path d="M3,3.6V3.2A3.21,3.21,0,0,1,6.2,0,3.12,3.12,0,0,1,9.4,3.2v.4h.74a1.4,1.4,0,0,1,1.39,1.2l.86,6A1.4,1.4,0,0,1,11,12.4H1.4A1.4,1.4,0,0,1,0,10.8l.86-6A1.59,1.59,0,0,1,2.44,3.6Zm1.4-.4v.6H8V3.2A1.68,1.68,0,0,0,6.2,1.4,1.81,1.81,0,0,0,4.4,3.2ZM10.31,11a.6.6,0,0,0,.59-.68l-.68-4.8A.61.61,0,0,0,9.62,5H9.2V6.2A.6.6,0,1,1,8,6.2V5H4.4V6.2a.6.6,0,1,1-1.2,0V5H2.78a.61.61,0,0,0-.6.52l-.68,4.8a.6.6,0,0,0,.59.68Z"/></g></g></g></svg>