<svg xmlns="http://www.w3.org/2000/svg" viewBox="0 0 48 42"><defs><style>.cls-1{fill-rule:evenodd;}</style></defs><title>enterprise_service</title><g id="图层_2" data-name="图层 2"><g id="首页"><path id="enterprise_service" class="cls-1" d="M26.65,15.64a1.5,1.5,0,0,1,1.5,1.5v6a1.5,1.5,0,0,1-3,0v-6A1.5,1.5,0,0,1,26.65,15.64Zm6.25,12.5h0V12.75a2.09,2.09,0,0,0-2.08-2.11H22.47a2.09,2.09,0,0,0-2.08,2.11v5.56a2,2,0,0,0-.81-.17H17.49a2.09,2.09,0,0,0-2.08,2.11v7.89h0a1.25,1.25,0,1,0,0,2.5H32.9a1.25,1.25,0,0,0,0-2.5ZM24,3h0A18,18,0,1,1,6,21,18,18,0,0,1,24,3ZM45,22a21,21,0,0,1-27.1,19.1.77.77,0,0,1-.51-.55.75.75,0,0,1,.94-.88,18.91,18.91,0,0,0,5.69.85,19.5,19.5,0,1,0-12.65-4.66.74.74,0,0,1,.24.7.75.75,0,0,1-.49.57.77.77,0,0,1-.73-.14A21,21,0,0,1,3,22H1a1,1,0,0,1,0-2H3a21,21,0,0,1,42,0h2a1,1,0,0,1,0,2H45Z"/></g></g></svg>