<svg xmlns="http://www.w3.org/2000/svg" viewBox="0 0 22 24"><title>meeting_room_booking</title><g id="图层_2" data-name="图层 2"><g id="应用"><g id="meeting_room_booking"><path d="M10,17v3a1,1,0,0,0,2,0V17a1,1,0,0,0-2,0Z"/><path d="M10.73,21l7,2A1,1,0,0,0,18.27,21l-7-2A1,1,0,1,0,10.73,21Z"/><path d="M10.73,19l-7,2A1,1,0,1,0,4.27,23l7-2A1,1,0,0,0,10.73,19Z"/><path d="M5,23V22a1,1,0,0,0-2,0v1a1,1,0,0,0,2,0Z"/><path d="M19,23V22a1,1,0,0,0-2,0v1a1,1,0,0,0,2,0Z"/><path d="M10,20v3a1,1,0,0,0,2,0V20a1,1,0,0,0-2,0Z"/><path d="M19,10v4a1,1,0,0,1-1,1H16.67a1,1,0,0,0,0,2H18a3,3,0,0,0,3-3V10a1,1,0,0,0-2,0Z"/><path d="M1,10v4a3,3,0,0,0,3,3H5.32a1,1,0,0,0,0-2H4a1,1,0,0,1-1-1V10a1,1,0,0,0-2,0Z"/><path class="cls-1" d="M10,11v3a1,1,0,0,0,2,0V11a1,1,0,0,0-2,0Z"/><path d="M15.4,18H6.62a2.13,2.13,0,0,1-1.78-.95l-.48-.72A2.14,2.14,0,0,1,6.15,13h9.72a2.15,2.15,0,0,1,1.79,3.33l-.48.72A2.16,2.16,0,0,1,15.4,18Zm0-2a.16.16,0,0,0,.12-.06l.47-.72a.14.14,0,0,0-.12-.22H6.15a.14.14,0,0,0-.12.22l.47.72a.14.14,0,0,0,.12.06Z"/><path d="M14.32,12H7.68A2.52,2.52,0,0,1,5.17,9.23l.7-7A2.52,2.52,0,0,1,8.37,0h5.26a2.52,2.52,0,0,1,2.5,2.27l.7,7A2.52,2.52,0,0,1,14.32,12Zm0-2a.52.52,0,0,0,.52-.57l-.7-7A.51.51,0,0,0,13.63,2H8.37a.51.51,0,0,0-.51.47l-.7,7a.52.52,0,0,0,.52.57Z"/><path d="M1,11H3A1,1,0,0,0,3,9H1a1,1,0,0,0,0,2Z"/><path d="M19,11h2a1,1,0,0,0,0-2H19a1,1,0,0,0,0,2Z"/></g></g></g></svg>