<svg xmlns="http://www.w3.org/2000/svg" viewBox="0 0 24.5 16.5"><title>no_standard_services</title><g id="图层_2" data-name="图层 2"><g id="应用"><g id="no_standard_services"><path d="M22.72,1.91a.14.14,0,0,0-.14-.13H1.92a.14.14,0,0,0-.14.13v9.31a.14.14,0,0,0,.14.13H3.29V8.86a.89.89,0,0,1,1.78,0v2.49H6.48V9.78a.89.89,0,0,1,1.78,0v1.57h1.4V9.78a.9.9,0,0,1,1.79,0v1.57h1.4V9.78a.89.89,0,0,1,1.78,0v1.57H16V9.78a.9.9,0,0,1,1.79,0v1.57h1.4V8.86a.9.9,0,0,1,1.79,0v2.49h1.57a.15.15,0,0,0,.14-.13ZM22.58,0A1.92,1.92,0,0,1,24.5,1.91v9.31a1.92,1.92,0,0,1-1.92,1.91H1.92A1.92,1.92,0,0,1,0,11.22V1.91A1.92,1.92,0,0,1,1.92,0Z"/><path d="M20.38,14.7a.9.9,0,0,1,0,1.8H4.21a.9.9,0,0,1,0-1.8Z"/><path class="cls-1" d="M14.17,3a1.09,1.09,0,0,1,0,1.53L11.55,7.18A1.09,1.09,0,0,1,10,5.64L12.64,3A1.08,1.08,0,0,1,14.17,3Z"/><path class="cls-1" d="M14.17,7.17a1.09,1.09,0,0,1-1.53,0L10,4.55A1.09,1.09,0,0,1,11.55,3l2.63,2.63A1.09,1.09,0,0,1,14.17,7.17Z"/></g></g></g></svg>