<svg xmlns="http://www.w3.org/2000/svg" viewBox="0 0 18 24"><title>parking_reservation</title><g id="图层_2" data-name="图层 2"><g id="应用"><g id="parking_reservation"><path class="cls-1" d="M7,9.85a1.85,1.85,0,0,1,3.7,0v3.7a1.85,1.85,0,1,1-3.7,0Z"/><path class="cls-1" d="M7,1.5A1.7,1.7,0,0,1,8.85,0,1.7,1.7,0,0,1,10.7,1.5v3A1.7,1.7,0,0,1,8.85,6,1.7,1.7,0,0,1,7,4.5Z"/><path class="cls-1" d="M7,18.75A1.8,1.8,0,0,1,8.85,17a1.8,1.8,0,0,1,1.85,1.75v3.5A1.8,1.8,0,0,1,8.85,24,1.8,1.8,0,0,1,7,22.25Z"/><path class="cls-1" d="M3,24a2.75,2.75,0,0,1-3-2.4V2.4A2.75,2.75,0,0,1,3,0H15a2.75,2.75,0,0,1,3,2.4V21.6A2.75,2.75,0,0,1,15,24Zm11.81-2c1,0,1.19-.56,1.19-1.25V3.25C16,2.56,15.78,2,14.81,2H3.3A1.14,1.14,0,0,0,2,3.25v17.5A1.14,1.14,0,0,0,3.3,22Z"/></g></g></g></svg>