<svg xmlns="http://www.w3.org/2000/svg" viewBox="0 0 48 42"><title>property_lease</title><g id="图层_2" data-name="图层 2"><g id="应用"><g id="property_lease"><path d="M47,20H45A21,21,0,0,0,3,20H1a1,1,0,0,0,0,2H3a21,21,0,0,0,7.35,15,.77.77,0,0,0,.73.14.75.75,0,0,0,.49-.57.74.74,0,0,0-.24-.7A19.5,19.5,0,1,1,24,40.52a18.91,18.91,0,0,1-5.69-.85.75.75,0,0,0-.94.88.77.77,0,0,0,.51.55A21,21,0,0,0,45,22h2a1,1,0,0,0,0-2Z"/><path d="M24,3A18,18,0,1,0,42,21,18,18,0,0,0,24,3Zm0,28A10,10,0,1,1,34,21,10,10,0,0,1,24,31Z"/><path d="M17.21,18.8a.92.92,0,0,0,1.23-.43,6.22,6.22,0,0,1,2.93-2.93.93.93,0,0,0-.8-1.67,8.05,8.05,0,0,0-3.8,3.8A.92.92,0,0,0,17.21,18.8Z"/><path d="M21.37,26.56a6.22,6.22,0,0,1-2.93-2.93.93.93,0,1,0-1.67.8,8.05,8.05,0,0,0,3.8,3.8.93.93,0,1,0,.8-1.67Z"/><path d="M30.79,23.2a.92.92,0,0,0-1.23.43,6.22,6.22,0,0,1-2.93,2.93.93.93,0,0,0,.8,1.67,8.05,8.05,0,0,0,3.8-3.8A.92.92,0,0,0,30.79,23.2Z"/><path d="M26.63,15.44a6.18,6.18,0,0,1,2.92,2.92.93.93,0,0,0,1.68-.79,8,8,0,0,0-3.8-3.8.93.93,0,1,0-.8,1.67Z"/><path d="M24,15.86a.93.93,0,0,0,.93-.92v-1a.93.93,0,0,0-1.86,0v1A.93.93,0,0,0,24,15.86Z"/><path d="M24,26.14a.93.93,0,0,0-.93.92v1a.93.93,0,0,0,1.86,0v-1A.93.93,0,0,0,24,26.14Z"/><path d="M17.94,21.93a.93.93,0,0,0,0-1.86h-1a.93.93,0,0,0,0,1.86Z"/><path d="M31.07,20.07h-1a.93.93,0,0,0,0,1.86h1a.93.93,0,0,0,0-1.86Z"/><path d="M27,21a.93.93,0,0,0-.93-.93H24.93V18a.93.93,0,0,0-1.86,0v3a.93.93,0,0,0,.93.93h2A.93.93,0,0,0,27,21Z"/></g></g></g></svg>